<svg width="51" height="40" viewBox="0 0 51 40" fill="none" xmlns="http://www.w3.org/2000/svg">
<path d="M7.39916 14.2753C9.37306 14.2753 12.1533 14.6602 12.697 15.6252V20.3137C12.697 22.2147 10.5479 23.8511 7.62537 23.8511C4.69917 23.8511 2.26371 23.6997 2.26371 23.6997L0.0125088 25.6316C0.0125088 25.6316 -0.0750583 26.323 0.213183 26.8046C0.386493 27.0965 0.696627 27.3136 1.2421 27.2607C2.6979 27.1239 3.02263 25.5842 4.57147 25.5842C6.12031 25.5842 11.3306 26.3978 12.7809 27.2261V29.2328L3.61553 31.1483L1.74561 32.2448L1.83682 34.4321L3.52431 34.3865L5.21363 32.5622L13.2862 32.5184L17.2541 29.8731C17.2541 29.8731 20.6346 32.7027 22.6814 32.7027C28.2438 32.7027 28.5265 28.8698 32.624 28.8698C36.1358 32.2338 38.2173 33.5637 40.2696 34.5872C42.3111 35.6124 43.1594 37.1376 43.1594 38.8944C43.1594 39.7737 43.6939 39.9999 44.3926 39.9999C45.2591 39.9999 45.4872 40.0437 45.4872 38.1756C45.4872 35.5012 41.1709 32.1043 40.2423 31.2414C39.5272 30.5755 42.052 28.5304 42.8875 29.189C45.7043 31.3891 49.0647 33.8903 48.7728 35.939C48.4845 37.9859 49.6849 38.5842 50.5041 37.9001C51.6132 36.9715 50.4968 31.0097 47.3754 29.0011C47.0324 25.6444 44.4583 22.9608 43.5279 21.9374C43.3108 21.6947 43.3637 20.591 43.3637 20.591C43.3637 20.591 47.2659 18.3052 47.2659 11.869C47.2659 5.43463 40.5086 3.83106 36.2671 3.83106C29.3165 3.83106 26.2498 4.04815 24.7374 0C23.641 1.49959 21.9681 3.48444 21.9572 5.40179C21.9462 8.35718 25.0293 10.8109 30.6136 10.8109C42.1268 10.8109 45.5364 13.4543 41.2931 20.1605C40.3627 19.8048 38.6186 20.0492 37.7813 20.0638C34.1144 20.1167 31.004 22.0742 25.6423 22.0742C17.7777 22.0742 21.0213 11.9839 16.3456 10.9568C16.3383 9.27299 16.2927 7.29726 16.2927 7.29726L13.9667 7.34286L13.9685 9.12157H11.6808L7.40098 12.3141L7.39916 14.2753Z" fill="#043598"/>
</svg>
