<svg width="42" height="40" viewBox="0 0 42 40" fill="none" xmlns="http://www.w3.org/2000/svg">
<path d="M41.5056 23.7037H40.0242C40.0242 23.7037 41.5056 17.2267 41.5056 14.8148C41.5056 12.1156 39.0182 11.877 34.0997 11.8563C33.5984 11.368 33.104 10.8727 32.6168 10.3704C31.4197 9.12889 28.879 2.96296 25.2094 2.96296C22.4093 2.96296 20.7649 4.44444 19.2834 7.40741C18.3338 9.30667 13.4642 16.3333 11.2316 15.6726C8.15454 14.7615 11.3871 9.36444 11.4301 6.1837C11.5042 5.88148 11.556 5.54963 11.556 5.13333C11.556 0.411852 9.14268 0 7.43157 0C5.72046 0 4.82713 1.48148 4.46861 1.48148H1.50565C0.236017 1.48148 0.18861 2.54519 0.0241653 3.7037C-0.141761 4.86222 0.567869 6.01185 1.50565 5.92593C2.44342 5.84444 5.95009 4.44444 5.95009 4.44444C5.95009 4.44444 4.46861 11.8252 4.46861 14.8148C4.46861 23.5067 11.2908 25.0444 13.3575 25.1852C13.679 25.2059 14.839 26.6667 14.839 26.6667V35.5556C14.839 35.5556 12.3264 37.6889 11.876 38.5185V40H13.3575C13.3575 40 16.1071 37.5185 16.3205 37.037V31.3407L18.7975 26.1941L20.7649 31.1111V37.037C20.7649 37.037 18.3856 38.2 17.8019 38.5185V40H20.7649L22.2464 37.037V23.7037C24.8345 23.4415 26.7219 22.2119 28.1723 22.2222L26.6908 28.1481L29.6538 31.1111V35.5556L26.6908 38.5185V40H29.6538V38.5185L31.1353 37.037V31.1111L32.2449 28.8904C33.8197 29.8015 35.4864 30.2963 35.5797 31.1111V35.5556C35.5797 35.5556 32.8345 37.7793 32.6168 38.5185V40H35.5797L37.0612 37.037V29.6296C37.0612 28.597 35.5797 28.0519 35.5797 25.1852C35.5797 23.0059 37.0612 19.5896 37.0612 16.2963C37.0638 15.7641 36.9323 15.2399 36.679 14.7719C38.3234 14.517 40.0242 13.5733 40.0242 14.8148C40.0242 17.7778 38.0656 21.0756 38.5427 23.7037C38.7368 24.7659 39.4064 24.8622 40.0242 25.1852H41.5056C41.5916 24.8652 41.5056 23.7037 41.5056 23.7037Z" fill="#043598"/>
</svg>
