<svg width="40" height="40" viewBox="0 0 40 40" fill="none" xmlns="http://www.w3.org/2000/svg">
<path d="M8.57143 24.2857H5.71429V27.1429H2.85714V24.2857H0V40H11.4286V27.1429H8.57143V24.2857ZM17.1429 7.85714L20 5.71429L22.8571 7.85714L21.4286 4.28571L24.2857 2.85714H21.4286L20 0L18.5714 2.85714H15.7143L18.5714 4.28571L17.1429 7.85714ZM37.1429 24.2857V27.1429H34.2857V24.2857H31.4286V27.1429H28.5714V40H40V24.2857H37.1429ZM20 8.57143L15.7143 20H12.8571V40H17.1429V34.2857C17.1429 33.528 17.4439 32.8012 17.9797 32.2654C18.5155 31.7296 19.2422 31.4286 20 31.4286C20.7578 31.4286 21.4845 31.7296 22.0203 32.2654C22.5561 32.8012 22.8571 33.528 22.8571 34.2857V40H27.1429V20H24.2857L20 8.57143ZM20 25.7143C19.6195 25.7229 19.2411 25.6554 18.8871 25.5158C18.5331 25.3761 18.2105 25.1672 17.9383 24.9011C17.6662 24.6351 17.4499 24.3174 17.3022 23.9667C17.1545 23.6159 17.0784 23.2392 17.0783 22.8586C17.0782 22.478 17.1541 22.1012 17.3016 21.7504C17.4491 21.3996 17.6653 21.0818 17.9373 20.8156C18.2093 20.5495 18.5318 20.3403 18.8858 20.2005C19.2397 20.0607 19.6181 19.993 19.9986 20.0014C20.7451 20.0179 21.4555 20.326 21.9777 20.8598C22.4999 21.3935 22.7924 22.1105 22.7925 22.8572C22.7927 23.6039 22.5006 24.321 21.9787 24.855C21.4567 25.389 20.7465 25.6974 20 25.7143Z" fill="#043598"/>
</svg>
