<svg width="29" height="40" viewBox="0 0 29 40" fill="none" xmlns="http://www.w3.org/2000/svg">
<path d="M25.8344 27.0957C25.8344 27.0957 25.6409 28.0919 25.6409 24.5544C25.6409 21.0184 23.1913 20.2186 21.199 20.2186H16.0791C14.3133 20.2186 12.7051 19.393 12.7051 17.7332V11.3749C14.8651 11.3749 15.4657 10.7299 15.5717 10.1537C15.7546 10.1543 15.9336 10.1009 16.0863 10.0004C16.2769 9.87996 16.4346 9.73089 16.5679 9.56749C18.2678 8.72899 19.8517 7.57229 21.0198 6.53313C23.015 4.7042 24.7149 2.04537 24.7393 2.0167C24.8752 1.80607 24.9223 1.55023 24.8702 1.30504C24.8181 1.05985 24.671 0.845235 24.4612 0.708066C24.25 0.572946 23.9939 0.526803 23.7488 0.579695C23.5036 0.632587 23.2894 0.780225 23.1526 0.990433C23.1526 0.996166 22.0131 2.73193 20.6472 4.22403C20.2071 2.33346 19.0691 0.536066 19.059 0.467266C18.929 0.252569 18.7195 0.0979176 18.476 0.0369801C18.2325 -0.0239575 17.9748 0.0137521 17.759 0.1419C17.5444 0.271634 17.3898 0.480933 17.3288 0.724181C17.2679 0.967428 17.3055 1.22491 17.4336 1.4405V1.4362C17.4336 1.43907 17.8178 2.07977 18.2005 2.93116C18.5889 3.77396 18.9472 4.85183 18.9343 5.4567C18.9343 5.71756 18.8755 5.85086 18.8483 5.8824C18.7736 5.98679 18.721 6.1053 18.6935 6.2307C18.1961 6.77536 17.6988 7.29853 17.0552 7.73139C16.8761 6.05726 15.7523 4.6268 15.7366 4.54653C15.5865 4.3537 15.3678 4.22627 15.1261 4.19085C14.8844 4.15543 14.6383 4.21476 14.4393 4.35645C14.2403 4.49813 14.1037 4.71122 14.058 4.95123C14.0124 5.19123 14.0612 5.4396 14.1943 5.64446C14.1943 5.64446 14.4523 6.00423 14.7103 6.51593C14.9798 7.02189 15.2105 7.68123 15.1991 8.04386C15.1761 8.31476 15.1618 8.32193 15.0471 8.41796C14.9664 8.47526 14.8957 8.54548 14.8379 8.62579C14.1461 8.75609 13.4433 8.8185 12.7395 8.81213L11.8365 8.79493C11.0481 8.81786 9.98459 7.30283 9.11312 5.36926C9.04719 5.23166 8.98556 5.08976 8.92249 4.9493C8.92536 4.93496 8.93253 4.9235 8.93539 4.90916C8.89526 4.60243 9.75383 3.60483 10.74 2.9584C11.696 2.27183 12.6391 1.80457 12.6391 1.79883C12.8634 1.6865 13.0339 1.48967 13.113 1.25165C13.1922 1.01362 13.1736 0.753901 13.0612 0.529616C13.0056 0.418562 12.9287 0.31955 12.8348 0.238235C12.7409 0.156919 12.6319 0.094892 12.5141 0.0556949C12.276 -0.0234673 12.0163 -0.00483244 11.792 0.1075H11.7892C11.7648 0.1247 10.74 0.6364 9.63916 1.4147C9.12316 1.806 8.56703 2.22453 8.09689 2.72333C7.81883 1.80313 7.66689 1.05207 7.67979 0.788333C7.67979 0.2666 7.34869 0 6.82696 0L6.69223 0.0888666C6.17336 0.0888666 5.79066 0.2666 5.79066 0.788333H5.78636C5.81073 1.93357 6.40843 4.042 7.40889 6.18053C7.44616 6.25506 7.47769 6.32673 7.51353 6.39983C6.44999 6.38263 5.4223 6.02573 4.66406 5.64446C3.8829 5.2546 2.97273 4.4935 2.96126 4.49923C2.7653 4.34299 2.5153 4.271 2.26625 4.29909C2.01721 4.32718 1.78952 4.45305 1.63328 4.64901C1.47704 4.84498 1.40505 5.09498 1.43314 5.34403C1.46123 5.59307 1.5871 5.82076 1.78307 5.977C1.8619 6.01856 4.28423 8.18719 7.31286 8.21586C7.31286 8.21586 7.93063 8.19723 8.34916 8.18003C8.65589 8.79349 8.99703 9.32526 9.44853 9.73233L7.77583 11.5097H5.29186L4.6569 12.6205L5.18006 14.1456H8.75909V17.6458C8.75909 17.6458 5.8394 20.4737 5.8394 22.2797V24.3709H2.82796L0.728133 24.7465L0 25.6308V32.8319H2.2661V27.3953L3.096 26.4736L7.00469 26.5668L10.5106 30.5744V40H12.867V29.0995L14.5025 27.1874L19.5392 27.1186C20.0595 30.2892 22.9878 31.2939 22.9878 31.2939H24.4498C25.9978 31.2939 26.2758 31.5677 26.2758 32.6742V40H28.6007V30.5859C28.6007 28.1521 27.2978 27.6031 25.8344 27.0957Z" fill="#043598"/>
</svg>
