<svg width="35" height="40" viewBox="0 0 35 40" fill="none" xmlns="http://www.w3.org/2000/svg">
<path d="M24.386 38.0943C24.1923 39.0357 23.4533 39.8178 22.8922 39.9326C21.1387 40.1205 19.5286 37.2161 19.5286 37.2161C19.5286 37.2161 18.6992 40 17.3087 40C15.9182 40 15.0213 37.1717 15.0213 37.1717C15.0213 37.1717 13.5074 40.0502 11.9046 39.8651C11.0536 39.7704 10.4509 38.3541 10.0965 38.0943C10.0965 38.0943 12.4958 36.5647 13.0827 31.7274C14.057 32.0244 15.4518 32.8438 17.3015 32.8438C19.2502 32.8438 20.6809 31.9928 21.628 31.68C22.2823 36.711 24.386 38.0943 24.386 38.0943ZM33.5613 14.1604C33.5871 14.2637 33.6 14.3268 33.6 14.3268C33.6 14.3268 22.9668 19.7022 21.5849 26.8513L22.4244 26.6963L22.9281 27.1311L22.8692 28.1629C22.8692 28.1629 21.5232 29.0411 19.3421 29.4328C18.6447 29.7012 17.8655 29.9135 17.1595 29.9135C16.4276 29.9135 15.7761 29.694 15.195 29.417C13.0196 29.0167 11.6262 28.1442 11.6262 28.1442L11.6061 27.1311L12.8588 26.6963L12.8933 26.7035C11.5214 20.8301 5.56197 16.7519 2.76233 15.1261C2.77094 15.2509 2.77955 15.3385 2.77955 15.3385L0 13.5648L2.03049 11.7396C2.23713 11.1914 2.50117 10.5916 2.82978 9.95731L0.65722 7.39157L4.5704 6.06135L4.59623 2.75659L8.00718 4.23318C8.30852 4.04233 8.60987 3.85291 8.93704 3.67785L10.5385 0L13.2075 2.21417C13.5118 2.15534 13.8145 2.09363 14.136 2.04771L16.5697 0.0674439L17.2484 0.327175L17.9272 0.0674439L20.4642 2.13094C20.7211 2.17256 20.9794 2.21417 21.2262 2.26726L23.957 0L25.6316 3.85148C25.887 3.98924 26.1137 4.14422 26.3534 4.29202L29.8992 2.75946L29.925 6.06421L33.8382 7.39444L31.7403 9.87265C32.2109 10.6777 32.5783 11.4296 32.8495 12.0883L34.4954 13.5677L33.5613 14.1604ZM15.3356 13.7055C16.1119 14.7028 17.2857 15.6958 17.2857 15.6958C17.2857 15.6958 18.7681 14.3483 19.1914 13.8131C20.4097 12.6938 20.2906 11.2574 20.2906 11.2574L17.8913 11.2804C17.8913 11.2804 20.2504 8.95139 20.0682 7.84933V6.99552H17.7794L19.9993 5.44V4.05812L14.5291 4.06529V5.44L16.7261 6.99552H14.3885V7.84789C14.3885 8.96861 16.6816 11.3004 16.6816 11.3004L14.3053 11.2775C14.1259 12.4183 14.6468 12.8215 15.3356 13.7055ZM10.3132 18.5787H14.4387L14.4215 14.9496L13.7528 14.1819L11.8142 15.3055L11.8213 11.322L11.1153 10.7796L8.83372 12.6465V8.86673L8.20664 8.12628L7.25525 8.49363L6.50045 10.692L4.57184 11.2459L4.32789 12.2074L5.06117 12.9909L8.64861 12.9535L7.31408 14.9008V15.7073L11.6606 15.6685L10.2357 17.9401L10.3132 18.5787ZM30.2235 12.2074L29.9796 11.2459L28.0509 10.692L27.2976 8.49363L26.3448 8.12628L25.7177 8.86673V12.6465L23.4346 10.7796L22.7286 11.322L22.7372 15.3055L20.7986 14.1819L20.1299 14.9496L20.1126 18.5787H24.2382L24.3157 17.9387L22.8893 15.6671L27.2373 15.7058V14.8994L25.9028 12.9521L29.4902 12.9894L30.2235 12.2074Z" fill="#043598"/>
</svg>
