<svg width="36" height="40" viewBox="0 0 36 40" fill="none" xmlns="http://www.w3.org/2000/svg">
<path d="M31.112 23.7037C31.112 21.117 32.509 20.7407 34.0749 20.7407C34.0749 18.957 32.5934 14.8148 28.149 14.8148C25.8883 14.8148 19.0557 16.2963 13.3342 16.2963C10.6942 16.2963 8.88974 8.88889 7.40826 7.40741C8.88974 7.40741 10.3712 8.02518 10.3712 5.92593H5.92678L10.3712 2.96296H11.8527L13.3342 1.48148H14.8157L14.8616 0.0459259L13.3342 0L11.8527 1.48148H10.3712L6.42011 4.44444L7.40826 1.48148H5.92678V4.81481L4.4453 5.92593C3.78011 5.92593 3.42604 7.91704 1.78307 9.46815C1.78307 9.46815 -0.0450749 10.163 0.00085103 11.1111C0.046777 12.0593 0.000851066 12.5926 1.48233 12.5926C2.84826 11.8756 2.96381 11.8519 4.4453 11.8519C4.70011 11.8519 5.92678 11.3659 5.92678 11.1111C6.36678 12.963 6.709 14.9956 7.40826 19.2593C8.10456 23.523 11.8527 25.1852 11.8527 25.1852V37.037L10.3712 38.5185V40H11.8527L13.3342 37.037V28.1481L17.7786 37.037L16.2971 38.5185V40H17.7786L19.2601 37.037C19.2601 37.037 16.2971 30.5319 16.2971 28.1481V25.1852C19.3949 25.2622 19.4275 24.8889 25.186 23.7037C25.5771 27.037 29.6305 29.6296 29.6305 29.6296C30.0468 33.3067 29.6305 37.037 29.6305 37.037L28.149 38.5185V40H29.6305L31.112 37.037V28.1481L34.0749 31.1111V37.037L32.5934 38.5185V40H34.0749L35.5564 37.037V29.6296C35.5564 29.6296 31.112 25.6444 31.112 23.7037Z" fill="#043598"/>
</svg>
