<svg width="38" height="40" viewBox="0 0 38 40" fill="none" xmlns="http://www.w3.org/2000/svg">
<path d="M17.1429 17.1429L15.7143 14.2857V12.8571L14.2857 11.4286V10L2.85714 4.28571V1.42857L1.42857 0V4.28571H0V5.71429H1.42857L4.28571 7.14286L2.85714 8.57143L5.71429 10H7.14286L10 12.8571H8.57143L7.14286 14.2857H11.4286L15.7143 17.1429H17.1429ZM20.7143 24.2857L20 21.4286V20L18.5714 18.5714L17.8571 21.4286L15.7143 24.2857V28.5714L17.1429 34.2857V35.7143L15.7143 37.1429L14.2857 40H15.7143L18.5714 37.1429L20 38.5714H21.4286V37.1429L20 35.7143L19.2857 34.2857L20 32.8571H21.4286L20.7143 27.1429H22.8571L20.7143 24.2857ZM35.7143 4.28571V0L34.2857 1.42857V4.28571L22.8571 10V11.4286L21.4286 12.8571V14.2857L20 17.1429H21.4286L25.7143 14.2857H30L28.5714 12.8571H27.1429L30 10H31.4286L34.2857 8.57143L32.8571 7.14286L35.7143 5.71429H37.1429V4.28571H35.7143Z" fill="#043598"/>
</svg>
