<svg width="33" height="40" viewBox="0 0 33 40" fill="none" xmlns="http://www.w3.org/2000/svg">
<path d="M23.5311 32.8149C23.5311 38.3302 18.4649 40 18.4649 40L12.8122 39.9762C12.8122 39.9762 8.85854 35.8393 8.98502 32.3237C9.11332 28.8503 10.5632 29.1729 10.5632 29.1729C10.5632 29.1729 10.6493 29.8657 10.6182 30.5183C10.5503 32.1037 11.3678 34.9869 13.5123 34.9869C15.1657 34.9869 15.2866 34.2721 15.2866 33.1833C15.2866 32.0048 12.7957 30.0985 12.7957 27.6241C12.7957 24.3248 16.0436 23.3149 17.7574 23.7438C17.4128 24.6602 15.963 25.2468 15.963 27.6204C15.963 29.7301 17.1892 31.0938 18.892 31.0938C20.0889 31.0938 20.1585 30.4614 20.1585 29.6898C20.1585 28.0915 20.0761 26.253 20.0761 26.253C21.2785 26.561 23.412 29.6898 23.5311 32.8149ZM19.8689 12.5611H19.6398V5.17619H22.3581L23.3313 3.86198V1.33437L22.3581 0H10.2699L9.32961 1.33437V3.86015L10.2717 5.17436H13.0431V12.5592H12.6692C7.00545 12.5592 5.00023 21.8962 0.00733206 21.8962L0 39.923L5.1212 39.9835V28.4379C5.1212 22.413 11.1259 19.4932 16.2196 19.4932C21.3133 19.4932 27.4609 22.8145 27.4609 28.3774V39.923H32.7031V21.898C27.1787 21.898 25.5345 12.5611 19.8689 12.5611Z" fill="#043598"/>
</svg>
