<svg width="41" height="40" viewBox="0 0 41 40" fill="none" xmlns="http://www.w3.org/2000/svg">
<path d="M35.1684 12.4201C37.5762 13.5183 40.1652 15.0221 40.1652 15.0221C40.1652 15.0221 37.9804 15.8406 35.1293 15.5045C33.3937 15.2988 31.9015 13.4009 31.0004 11.9507C29.647 12.6843 28.3609 13.5356 27.1568 14.4947C27.8175 14.9555 28.7867 15.6885 30.0819 16.8127C32.5071 18.9178 34.1717 21.2691 34.1717 21.2691C34.1717 21.2691 31.2829 21.8312 28.7244 19.8986C26.9627 18.5686 26.3774 16.649 26.1891 15.3263C23.5972 17.6965 21.7385 20.7157 21.7385 24.5158H18.828C18.828 20.7142 16.9678 17.6965 14.3774 15.3263C14.1891 16.649 13.6052 18.5672 11.8435 19.8986C9.28504 21.8312 6.39623 21.2691 6.39623 21.2691C6.39623 21.2691 8.06085 18.9178 10.4861 16.8127C11.4196 15.9892 12.396 15.2155 13.4111 14.4947C12.2056 13.5362 10.9185 12.685 9.56465 11.9507C8.66353 13.4009 7.17131 15.2988 5.43426 15.506C2.58312 15.8406 0.398406 15.0235 0.398406 15.0235C0.398406 15.0235 2.98732 13.5197 5.39515 12.4216C6.41728 12.1265 7.41905 11.765 8.39406 11.3394C7.6604 10.9725 6.91485 10.63 6.15864 10.3122L6.55994 9.35748C5.61101 9.03441 4.47229 8.55632 3.48714 7.87251C1.34734 6.38754 0 2.96559 0 2.96559C0 2.96559 3.25244 3.47555 5.39225 4.95907C6.76422 5.90945 7.65665 7.65954 8.12459 8.80116C8.88229 9.14741 9.65013 9.52843 10.4151 9.94133C10.5078 9.06773 10.5933 7.74937 10.4078 6.79609C9.97154 4.5037 9.41738 2.23533 8.74755 0C8.74755 0 12.7215 1.58638 12.9547 5.73271C13.0822 8.05505 11.8653 9.54292 11.0351 10.2876C12.2043 10.9497 13.3517 11.6929 14.4296 12.5273C14.7265 11.4219 15.2438 9.50815 15.6624 7.99131C16.2419 5.88337 16.2275 2.10648 16.2275 2.10648C16.2275 2.10648 19.8435 6.72655 18.3513 9.78051C17.4618 11.6045 16.0145 12.5824 15.0815 13.0532C17.385 14.9656 19.2988 17.314 20.2825 20.1782C21.2662 17.314 23.18 14.9656 25.4821 13.0518C24.5491 12.5795 23.1018 11.603 22.2122 9.77907C20.7215 6.7251 24.3361 2.10503 24.3361 2.10503C24.3361 2.10503 24.3216 5.88193 24.9011 7.98986C25.3213 9.5067 25.837 11.4219 26.134 12.5259C27.2114 11.7004 28.3457 10.9519 29.5284 10.2861C28.6968 9.54147 27.4799 8.0536 27.6103 5.73126C27.8435 1.58638 31.8175 0 31.8175 0C31.1476 2.23533 30.5935 4.5037 30.1572 6.79609C29.9717 7.74937 30.0572 9.06773 30.1499 9.94133C30.901 9.53582 31.6654 9.15555 32.4419 8.80116C32.9098 7.65809 33.8022 5.908 35.1742 4.95907C37.3126 3.4741 40.565 2.96559 40.565 2.96559C40.565 2.96559 39.2177 6.38754 37.0779 7.87251C36.0913 8.55777 34.954 9.03441 34.0036 9.35748L34.4049 10.3122C33.6719 10.6208 32.9214 10.9627 32.1681 11.3379C32.9736 11.69 33.9862 12.0782 35.1684 12.4201ZM20.2028 27.7523C18.757 27.7523 17.5835 28.9417 17.5835 30.4122C17.5835 31.8798 18.757 33.0721 20.2028 33.0721C21.6472 33.0721 22.8207 31.8798 22.8207 30.4122C22.8207 28.9431 21.6472 27.7523 20.2028 27.7523ZM20.2028 34.6802C18.757 34.6802 17.5835 35.8696 17.5835 37.3401C17.5835 38.8077 18.757 40 20.2028 40C21.6472 40 22.8207 38.8077 22.8207 37.3401C22.8207 35.8696 21.6472 34.6802 20.2028 34.6802ZM27.4364 26.3035C25.9906 26.3035 24.8171 27.4929 24.8171 28.9634C24.8171 30.431 25.9906 31.6233 27.4364 31.6233C28.8808 31.6233 30.0543 30.431 30.0543 28.9634C30.0543 27.4944 28.8808 26.3035 27.4364 26.3035ZM27.4364 33.3662C25.9906 33.3662 24.8171 34.5556 24.8171 36.0261C24.8171 37.4937 25.9906 38.686 27.4364 38.686C28.8808 38.686 30.0543 37.4937 30.0543 36.0261C30.0543 34.557 28.8808 33.3662 27.4364 33.3662ZM34.6686 29.201C33.2227 29.201 32.0493 30.3904 32.0493 31.8609C32.0493 33.3285 33.2227 34.5208 34.6686 34.5208C36.113 34.5208 37.2865 33.3285 37.2865 31.8609C37.2865 30.3919 36.113 29.201 34.6686 29.201ZM12.9707 26.3035C11.5248 26.3035 10.3513 27.4929 10.3513 28.9634C10.3513 30.431 11.5248 31.6233 12.9707 31.6233C14.4151 31.6233 15.5886 30.431 15.5886 28.9634C15.5886 27.4944 14.4151 26.3035 12.9707 26.3035ZM12.9707 33.1851C11.5248 33.1851 10.3513 34.3745 10.3513 35.845C10.3513 37.3126 11.5248 38.5049 12.9707 38.5049C14.4151 38.5049 15.5886 37.3126 15.5886 35.845C15.5886 34.3759 14.4151 33.1851 12.9707 33.1851ZM5.7385 29.201C4.29265 29.201 3.11916 30.3904 3.11916 31.8609C3.11916 33.3285 4.29265 34.5208 5.7385 34.5208C7.1829 34.5208 8.35639 33.3285 8.35639 31.8609C8.35639 30.3919 7.1829 29.201 5.7385 29.201Z" fill="#043598"/>
</svg>
