<svg width="35" height="40" viewBox="0 0 35 40" fill="none" xmlns="http://www.w3.org/2000/svg">
<path d="M29.3238 18.8028C29.9085 18.0605 31.641 17.4501 33.289 16.295C35.1318 15.0053 33.7776 11.5776 33.7776 11.5776C33.7776 11.5776 33.2488 14.4121 32.0079 14.9308C30.8586 15.4137 26.7702 16.831 26.4349 19.3144C24.6794 20.1441 23.0873 21.6302 21.2058 21.6302H19.3156C19.3629 20.8334 19.6381 19.72 20.6741 18.6767C22.2949 17.0459 28.785 12.2468 29.619 11.4042C30.0976 10.9227 30.0561 9.31052 29.7695 9.02535C29.2636 8.52093 29.2794 8.498 28.7191 9.06118C28.0742 9.71177 28.014 9.77625 27.319 10.477C26.6226 11.1777 25.5478 10.7966 24.8786 10.123C24.2896 9.52834 24.8772 8.8061 25.6137 8.06093C26.3517 7.31863 28.4683 5.1734 29.6563 3.9754C30.1406 3.48531 30.1808 2.27728 29.7107 1.80152C29.2995 1.38881 28.8094 1.93192 28.2777 2.46644L24.8514 5.91714C24.3469 6.42443 23.0974 6.44736 22.4568 5.79963C21.8162 5.15334 21.9552 4.65752 22.7377 3.86506C23.5215 3.0769 23.9027 2.66992 23.9027 2.66992C24.3627 2.20563 24.7224 0.781209 24.1191 0.177909C23.8955 -0.0456415 23.6763 -0.229068 22.7133 0.742518C20.3517 3.12132 20.2385 3.2331 16.8193 6.65228C15.2287 8.24293 12.8155 10.9958 12.8155 12.9604C12.8155 16.2821 15.8563 14.6256 15.8563 18.0376C15.8563 19.3961 14.1295 21.3522 12.4457 21.6316H11.6891C11.5307 21.6063 11.3761 21.5611 11.2291 21.4969C11.232 21.5471 11.252 21.5843 11.2578 21.6316H11.1317C9.00507 21.6316 8.37741 21.1988 8.37741 17.6449C8.37741 15.3593 10.2375 9.91096 10.9769 6.47602H11.3208V5.1992C11.3208 5.1992 14.1826 3.46238 14.1826 1.41747H12.3182C12.3182 1.41747 12.0646 2.04226 11.6934 2.73871C11.2277 3.61715 10.5757 4.61023 10.0225 4.61023C9.03087 4.61023 8.85461 2.12968 8.85461 2.12968L8.33156 0.133486L7.30265 0.113423L6.60764 2.12824C6.60764 2.12824 6.55175 4.19465 5.70484 4.50562C5.51803 4.48741 5.33126 4.46878 5.14453 4.44973C4.66017 4.16456 4.19157 3.37067 3.85338 2.66419C3.65909 2.25795 3.485 1.84234 3.33176 1.4189H1.44305C1.44305 4.32363 4.33344 5.20063 4.33344 5.20063V5.55889L4.28042 7.25414L1.059 7.3C1.059 7.3 0 7.23981 0 8.08386C0 8.92504 0.770963 9.8823 0.770963 9.8823H5.75786C5.75786 14.349 1.3671 17.301 1.3671 22.371C1.3671 28.0057 6.00004 29.9144 8.88757 29.9144L10.6788 29.9159C9.75311 32.041 8.02203 35.9632 7.71679 36.2727H7.42016L6.82689 34.9529L5.32509 33.0198H2.95058L2.93625 34.6907L5.18465 35.3771V37.3761H3.0036L2.8474 38.5355L3.84765 39.9685H5.7335L6.48297 38.3764L8.13093 38.4137L9.40775 39.9011L11.2664 39.9685C11.2664 39.9685 11.6977 37.336 9.09392 37.336L10.216 35.9231L13.8788 29.9173L15.1441 29.9159C15.3849 29.9073 15.6084 29.8843 15.832 29.86L19.8659 35.8271L20.667 37.4492C18.0646 37.4492 18.6794 39.9412 18.6794 39.9412H21.2674L21.6285 38.395L23.6089 38.3578L24.2997 40H25.8516L27.0324 38.7819L27.0081 37.283H24.9116V35.4688L26.9421 34.5545L26.9464 33.0513H24.4344L23.2249 35.0676L22.6288 36.1996H22.0427C21.6701 35.8213 19.4905 30.2555 18.9875 28.9615C21.2731 27.7635 22.507 25.687 24.8585 24.115C25.0355 23.9921 25.2085 23.8635 25.3773 23.7295C25.5163 25.9006 27.6458 27.0971 29.7852 27.0971C31.5092 27.0971 34.2849 26.0453 34.2849 23.4472C34.2835 20.4279 32.9594 18.9834 29.3238 18.8028ZM29.8497 24.833C27.9968 24.704 27.5469 22.3768 27.5469 22.3768L26.4248 23.0503L26.0264 23.2208C27.0539 22.4269 28.421 21.4883 30.1406 21.3163C32.4421 21.0885 32.5997 25.0207 29.8497 24.833Z" fill="#043598"/>
</svg>
