<svg width="44" height="40" viewBox="0 0 44 40" fill="none" xmlns="http://www.w3.org/2000/svg">
<path d="M36.1062 30.9692L23.5609 9.02462L23.2915 9.01842V5.9359H32.8193L28.2706 2.91067L32.8193 0H20.5187V5.9359H20.7199V8.9534L20.4412 8.94566L8.26289 30.9692H6.19291V30.9645H1.54823V34.061H0V38.7057H1.54823L4.64468 37.1575V32.5128H5.15095C5.58446 37.4764 8.51525 40 20.4521 40C42.6877 40 43.3504 30.9692 43.3504 30.9692H36.1062ZM23.6925 11.8408L29.0401 30.9692H23.2915V11.8439L23.6925 11.8408ZM14.6958 30.9692L20.1502 11.8734L20.7184 11.8687V30.9692H14.6958Z" fill="#043598"/>
</svg>
