<svg width="30" height="30" viewBox="0 0 30 30" fill="none" xmlns="http://www.w3.org/2000/svg">
<rect width="30" height="30" rx="3" fill="#1E1E1E" fill-opacity="0.65"/>
<path d="M17.2341 6.70213C17.2341 7.05319 17.5214 7.34043 17.8724 7.34043L21.766 7.30851L17.4256 11.6489C17.1703 11.9043 17.1703 12.2872 17.4256 12.5426C17.5533 12.6702 17.7129 12.734 17.8724 12.734C18.032 12.734 18.1916 12.6702 18.3192 12.5426L22.6597 8.20213L22.6277 12.0957C22.6277 12.4468 22.915 12.734 23.266 12.734C23.6171 12.734 23.9043 12.4468 23.9043 12.0957L23.9363 6.6383V6L17.8405 6.06383C17.5214 6.06383 17.2341 6.35106 17.2341 6.70213Z" fill="white"/>
<path d="M12.0638 23.9361C12.4149 23.9361 12.7021 23.6489 12.7021 23.2978C12.7021 22.9467 12.4149 22.6595 12.0638 22.6595L8.17021 22.6914L12.5106 18.351C12.766 18.0957 12.766 17.7127 12.5106 17.4574C12.2553 17.202 11.8723 17.202 11.617 17.4574L7.2766 21.7659L7.30851 17.9042C7.30851 17.5531 7.02128 17.2659 6.67021 17.2659C6.31915 17.234 6.03192 17.5531 6.03192 17.9042L6 23.3616V23.9999L12.0638 23.9361Z" fill="white"/>
</svg>
