<svg width="81" height="80" viewBox="0 0 81 80" fill="none" xmlns="http://www.w3.org/2000/svg">
<g opacity="0.1">
<path d="M71.6052 0H8.39477C6.16912 0.00254215 4.03535 0.887804 2.46158 2.46158C0.887804 4.03535 0.00254215 6.16912 0 8.39477V71.6052C0.00254215 73.8309 0.887804 75.9647 2.46158 77.5384C4.03535 79.1122 6.16912 79.9975 8.39477 80H71.6052C73.8326 80 75.9688 79.1159 77.5446 77.5418C79.1205 75.9678 80.0071 73.8326 80.0096 71.6052V8.39477C80.0071 6.16745 79.1205 4.03223 77.5446 2.45819C75.9688 0.884138 73.8326 -1.45457e-06 71.6052 0ZM78.079 8.39477V38.9483H40.8692V1.921H71.6052C73.3231 1.921 74.9707 2.60275 76.1863 3.81654C77.4019 5.03033 78.0861 6.67693 78.0886 8.39477H78.079ZM8.39477 1.921H38.9482V38.9483H1.921V8.39477C1.92354 6.6786 2.60641 5.03344 3.81993 3.81993C5.03344 2.60641 6.6786 1.92354 8.39477 1.921ZM1.921 71.6052V40.8693H38.9482V78.0886H8.39477C6.67693 78.0861 5.03033 77.4019 3.81654 76.1863C2.60275 74.9707 1.921 73.3231 1.921 71.6052ZM71.6052 78.0886H40.8692V40.8693H78.0886V71.6052C78.0886 73.3247 77.4055 74.9738 76.1897 76.1897C74.9738 77.4055 73.3247 78.0886 71.6052 78.0886Z" fill="white"/>
<path d="M13.0914 22.7255H19.4114V29.0552C19.4114 29.3099 19.5126 29.5542 19.6928 29.7344C19.8729 29.9145 20.1172 30.0157 20.3719 30.0157C20.6267 30.0157 20.871 29.9145 21.0511 29.7344C21.2312 29.5542 21.3324 29.3099 21.3324 29.0552V22.7255H27.8062C28.061 22.7255 28.3053 22.6243 28.4854 22.4442C28.6655 22.2641 28.7667 22.0197 28.7667 21.765C28.7667 21.5103 28.6655 21.266 28.4854 21.0858C28.3053 20.9057 28.061 20.8045 27.8062 20.8045H21.3324V14.3307C21.3324 14.076 21.2312 13.8317 21.0511 13.6516C20.871 13.4714 20.6267 13.3702 20.3719 13.3702C20.1172 13.3702 19.8729 13.4714 19.6928 13.6516C19.5126 13.8317 19.4114 14.076 19.4114 14.3307V20.8045H13.0914C12.8366 20.8045 12.5923 20.9057 12.4122 21.0858C12.2321 21.266 12.1309 21.5103 12.1309 21.765C12.1309 22.0197 12.2321 22.2641 12.4122 22.4442C12.5923 22.6243 12.8366 22.7255 13.0914 22.7255Z" fill="white"/>
<path d="M52.2994 22.7254H67.0142C67.269 22.7254 67.5133 22.6242 67.6934 22.4441C67.8735 22.264 67.9747 22.0197 67.9747 21.7649C67.9747 21.5102 67.8735 21.2659 67.6934 21.0858C67.5133 20.9056 67.269 20.8044 67.0142 20.8044H52.2994C52.0446 20.8044 51.8003 20.9056 51.6202 21.0858C51.4401 21.2659 51.3389 21.5102 51.3389 21.7649C51.3389 22.0197 51.4401 22.264 51.6202 22.4441C51.8003 22.6242 52.0446 22.7254 52.2994 22.7254Z" fill="white"/>
<path d="M21.8128 59.8488L26.3271 55.3344C26.4845 55.1507 26.5667 54.9143 26.5574 54.6726C26.548 54.4308 26.4478 54.2015 26.2768 54.0305C26.1057 53.8594 25.8764 53.7592 25.6347 53.7499C25.3929 53.7405 25.1566 53.8228 24.9728 53.9801L20.4585 58.4945L15.8961 53.9801C15.7124 53.8228 15.476 53.7405 15.2343 53.7499C14.9925 53.7592 14.7632 53.8594 14.5922 54.0305C14.4211 54.2015 14.3209 54.4308 14.3115 54.6726C14.3022 54.9143 14.3844 55.1507 14.5418 55.3344L19.0561 59.8488L14.5418 64.3631C14.4412 64.4492 14.3596 64.5552 14.3019 64.6743C14.2443 64.7935 14.2119 64.9233 14.2068 65.0556C14.2017 65.1879 14.224 65.3198 14.2722 65.443C14.3205 65.5663 14.3938 65.6782 14.4874 65.7718C14.581 65.8654 14.6929 65.9387 14.8162 65.987C14.9394 66.0352 15.0713 66.0575 15.2036 66.0524C15.3359 66.0473 15.4657 66.0149 15.5849 65.9573C15.704 65.8996 15.81 65.818 15.8961 65.7174L20.4104 61.2031L24.9248 65.7174C25.1085 65.8748 25.3449 65.957 25.5866 65.9477C25.8284 65.9383 26.0577 65.8381 26.2287 65.667C26.3998 65.496 26.5 65.2667 26.5093 65.0249C26.5187 64.7832 26.4365 64.5468 26.2791 64.3631L21.8128 59.8488Z" fill="white"/>
<path d="M67.0142 54.7773H52.2994C52.0446 54.7773 51.8003 54.8785 51.6202 55.0587C51.4401 55.2388 51.3389 55.4831 51.3389 55.7378C51.3389 55.9926 51.4401 56.2369 51.6202 56.417C51.8003 56.5971 52.0446 56.6983 52.2994 56.6983H67.0142C67.269 56.6983 67.5133 56.5971 67.6934 56.417C67.8735 56.2369 67.9747 55.9926 67.9747 55.7378C67.9747 55.4831 67.8735 55.2388 67.6934 55.0587C67.5133 54.8785 67.269 54.7773 67.0142 54.7773Z" fill="white"/>
<path d="M67.0142 62.3748H52.2994C52.0446 62.3748 51.8003 62.476 51.6202 62.6561C51.4401 62.8362 51.3389 63.0805 51.3389 63.3353C51.3389 63.59 51.4401 63.8343 51.6202 64.0144C51.8003 64.1946 52.0446 64.2958 52.2994 64.2958H67.0142C67.269 64.2958 67.5133 64.1946 67.6934 64.0144C67.8735 63.8343 67.9747 63.59 67.9747 63.3353C67.9747 63.0805 67.8735 62.8362 67.6934 62.6561C67.5133 62.476 67.269 62.3748 67.0142 62.3748Z" fill="white"/>
</g>
</svg>
