<svg width="16" height="16" viewBox="0 0 16 16" fill="none" xmlns="http://www.w3.org/2000/svg">
<path d="M8 0C12.4184 0 16 3.5816 16 8C16 9.91999 15.3232 11.6832 14.1952 13.0624L14.2224 13.0912L13.0912 14.2224L13.0624 14.1952C11.6349 15.365 9.84557 16.0029 8 16C3.5816 16 0 12.4184 0 8C0 3.5816 3.5816 0 8 0ZM1.6 8C1.59998 9.19754 1.93596 10.3711 2.56973 11.3871C3.20351 12.4032 4.10965 13.2211 5.18514 13.7478C6.26064 14.2745 7.46233 14.4889 8.65361 14.3666C9.84489 14.2443 10.978 13.7902 11.924 13.056L10.024 11.1552C9.88466 11.1851 9.74252 11.2001 9.6 11.2H8.8V12.8H7.2V11.2H5.2V9.59999H9.6C9.69996 9.60018 9.79636 9.56293 9.87023 9.49559C9.94409 9.42824 9.99007 9.33569 9.9991 9.23614C10.0081 9.13659 9.97956 9.03727 9.91902 8.95773C9.85848 8.87819 9.77036 8.8242 9.672 8.8064L9.6 8.79999H6.4C6.04893 8.79999 5.70405 8.70757 5.40002 8.53203C5.09599 8.35649 4.84352 8.10401 4.66799 7.79997C4.49246 7.49594 4.40005 7.15105 4.40005 6.79998C4.40005 6.44891 4.49247 6.10403 4.668 5.8L2.9432 4.0752C2.07023 5.19702 1.59743 6.57853 1.6 8ZM8 1.6C6.5216 1.6 5.16 2.1016 4.076 2.944L5.976 4.844C6.11537 4.81433 6.25751 4.79958 6.4 4.8H7.2V3.2H8.8V4.8H10.8V6.4H6.4C6.30004 6.39981 6.20364 6.43706 6.12977 6.5044C6.05591 6.57175 6.00993 6.66431 6.0009 6.76385C5.99187 6.8634 6.02044 6.96272 6.08098 7.04226C6.14152 7.1218 6.22964 7.17579 6.328 7.1936L6.4 7.2H9.6C9.95107 7.2 10.296 7.29242 10.6 7.46796C10.904 7.6435 11.1565 7.89598 11.332 8.20002C11.5075 8.50405 11.6 8.84894 11.5999 9.20001C11.5999 9.55108 11.5075 9.89596 11.332 10.2L13.0568 11.924C13.7911 10.9779 14.2452 9.84476 14.3674 8.65341C14.4897 7.46206 14.2753 6.2603 13.7485 5.18478C13.2217 4.10926 12.4036 3.20313 11.3874 2.56941C10.3712 1.9357 9.19761 1.59983 8 1.6Z" fill="#043598"/>
</svg>
