<svg width="25" height="16" viewBox="0 0 25 16" fill="none" xmlns="http://www.w3.org/2000/svg">
<path d="M24.2613 15.3297L23.1579 10.3641C23.1027 10.1103 22.8793 9.93103 22.62 9.93103H20.3027L19.2958 5.39862C19.2407 5.14483 19.0172 4.96552 18.7579 4.96552H16.4407L15.4338 0.433103C15.3786 0.17931 15.1551 0 14.8958 0H9.37858C9.11927 0 8.89583 0.17931 8.84065 0.433103L7.83376 4.96552H5.51652C5.25721 4.96552 5.03376 5.14483 4.97858 5.39862L3.97169 9.93103H1.65445C1.39514 9.93103 1.17169 10.1103 1.11652 10.3641L0.013068 15.3297C-0.022794 15.4924 0.0158266 15.6634 0.120654 15.7931C0.225482 15.9228 0.382723 16 0.550999 16H8.27514H15.9993H23.7234C23.8917 16 24.0489 15.9228 24.1538 15.7931C24.2586 15.6634 24.2972 15.4924 24.2613 15.3297ZM19.1744 9.93103H17.1027H14.8958H12.8241L13.682 6.06897H15.9993H18.3165L19.1744 9.93103ZM15.9993 12.9048L15.5827 11.0345H16.4131L15.9993 12.9048ZM12.1372 7.93931L11.7207 6.06897H12.551L12.1372 7.93931ZM9.81996 1.10345H14.4544L15.3124 4.96552H13.2407H11.0338H8.96203L9.81996 1.10345ZM5.9579 6.06897H8.27514H10.5924L11.4503 9.93103H9.37858H7.17169H5.09996L5.9579 6.06897ZM8.27514 12.9048L7.85858 11.0345H8.68893L8.27514 12.9048ZM1.2379 14.8966L2.09583 11.0345H4.41307H6.73031L7.58824 14.8966H1.2379ZM8.96203 14.8966L9.81996 11.0345H12.1372H14.4544L15.3124 14.8966H8.96203ZM16.6862 14.8966L17.5441 11.0345H19.8613H22.1786L23.0365 14.8966H16.6862Z" fill="#043598"/>
</svg>
