<svg width="16" height="16" viewBox="0 0 16 16" fill="none" xmlns="http://www.w3.org/2000/svg">
<path d="M12.8889 16C12.0638 16 11.2724 15.6722 10.689 15.0888C10.1056 14.5053 9.77778 13.714 9.77778 12.8889C9.77778 12.0638 10.1056 11.2724 10.689 10.689C11.2724 10.1056 12.0638 9.77778 12.8889 9.77778C13.714 9.77778 14.5053 10.1056 15.0888 10.689C15.6722 11.2724 16 12.0638 16 12.8889C16 13.714 15.6722 14.5053 15.0888 15.0888C14.5053 15.6722 13.714 16 12.8889 16ZM12.8889 14.2222C13.2425 14.2222 13.5816 14.0817 13.8317 13.8317C14.0817 13.5816 14.2222 13.2425 14.2222 12.8889C14.2222 12.5353 14.0817 12.1961 13.8317 11.9461C13.5816 11.696 13.2425 11.5556 12.8889 11.5556C12.5353 11.5556 12.1961 11.696 11.9461 11.9461C11.696 12.1961 11.5556 12.5353 11.5556 12.8889C11.5556 13.2425 11.696 13.5816 11.9461 13.8317C12.1961 14.0817 12.5353 14.2222 12.8889 14.2222ZM3.11111 6.22222C2.70255 6.22222 2.298 6.14175 1.92054 5.9854C1.54308 5.82906 1.20012 5.59989 0.911223 5.311C0.62233 5.02211 0.393167 4.67914 0.236819 4.30168C0.0804712 3.92422 0 3.51967 0 3.11111C0 2.70255 0.0804712 2.298 0.236819 1.92054C0.393167 1.54308 0.62233 1.20012 0.911223 0.911224C1.20012 0.62233 1.54308 0.393167 1.92054 0.236819C2.298 0.0804712 2.70255 -8.60969e-09 3.11111 0C3.93623 1.73881e-08 4.72755 0.327777 5.311 0.911224C5.89445 1.49467 6.22222 2.28599 6.22222 3.11111C6.22222 3.93623 5.89445 4.72755 5.311 5.311C4.72755 5.89445 3.93623 6.22222 3.11111 6.22222ZM3.11111 4.44444C3.46473 4.44444 3.80387 4.30397 4.05392 4.05392C4.30397 3.80387 4.44444 3.46473 4.44444 3.11111C4.44444 2.75749 4.30397 2.41835 4.05392 2.1683C3.80387 1.91825 3.46473 1.77778 3.11111 1.77778C2.75749 1.77778 2.41835 1.91825 2.1683 2.1683C1.91825 2.41835 1.77778 2.75749 1.77778 3.11111C1.77778 3.46473 1.91825 3.80387 2.1683 4.05392C2.41835 4.30397 2.75749 4.44444 3.11111 4.44444ZM14.2853 0.457778L15.5422 1.71467L1.71556 15.5422L0.458667 14.2853L14.2844 0.457778H14.2853Z" fill="#31BCFE"/>
</svg>
