<svg width="34" height="16" viewBox="0 0 34 16" fill="none" xmlns="http://www.w3.org/2000/svg">
<path d="M33.0118 7.21735C31.7049 7.21735 30.3985 7.21735 29.0916 7.21735C28.2027 7.21735 27.697 7.49847 27.1364 7.94718C26.7232 7.24099 26.3091 6.53521 25.8954 5.82902C25.6556 5.41872 25.0009 5.28365 24.6683 5.67072C23.99 6.45965 23.3112 7.24901 22.6329 8.03794C22.3116 6.62217 21.9908 5.2064 21.6696 3.79021C21.4902 2.99875 20.3881 3.09035 20.1622 3.79021C19.2319 6.67578 18.3016 9.56134 17.3712 12.4473C16.8229 10.3566 16.2737 8.26545 15.7246 6.17515C15.5751 5.60741 14.828 5.41408 14.4177 5.83028C13.7727 6.48583 13.1269 7.14137 12.4815 7.79649C11.7858 5.38369 11.0898 2.97046 10.3937 0.557664C10.162 -0.246039 9.16408 -0.123204 8.88633 0.557664C7.67529 3.52217 6.46382 6.48709 5.25278 9.45159C4.91255 8.65042 4.57275 7.84925 4.23253 7.04808C4.12869 6.8041 3.80577 6.661 3.55757 6.661C2.62386 6.661 1.68972 6.661 0.756005 6.661C-0.252002 6.661 -0.252002 8.22409 0.756005 8.22409C1.51961 8.22409 2.28321 8.22409 3.04681 8.22409C3.56179 9.43766 4.07677 10.6512 4.59175 11.8644C4.89145 12.5702 5.80279 12.2105 6.0206 11.6782C7.18353 8.83109 8.34687 5.98351 9.51021 3.13636C10.1227 5.25959 10.7348 7.38239 11.3473 9.50562C11.5089 10.0649 12.2362 10.2743 12.6537 9.85007C13.2902 9.20381 13.9272 8.55713 14.5633 7.91046C15.2227 10.4203 15.8816 12.9307 16.5409 15.4405C16.7444 16.2155 17.8174 16.1569 18.0487 15.4405C18.9605 12.6107 19.8727 9.78126 20.7849 6.95184C21.0103 7.94423 21.2348 8.93661 21.4602 9.92943C21.5852 10.4794 22.3876 10.715 22.7671 10.2739C23.5446 9.3697 24.3222 8.46554 25.0993 7.56137C25.4847 8.2186 25.8696 8.87583 26.255 9.53306C26.5273 9.99739 27.1001 10.01 27.4821 9.69135C27.846 9.38785 28.2111 9.08435 28.575 8.78085C28.8303 8.78085 29.0857 8.78085 29.3415 8.78085C30.5648 8.78085 31.7889 8.78085 33.0122 8.78085C34.0202 8.78085 34.0202 7.21735 33.0118 7.21735Z" fill="#31BCFE"/>
</svg>
