<svg width="26" height="16" viewBox="0 0 26 16" fill="none" xmlns="http://www.w3.org/2000/svg">
<path d="M5.19944 16C2.23935 16 0.504884 13.8766 0.098867 11.7723C-0.2923 9.74358 0.442679 7.24471 2.92418 6.07093C3.21447 2.26266 6.47382 0 9.57092 0C11.3152 0 12.9286 0.671372 14.1646 1.90119C14.8237 1.51003 15.5589 1.30576 16.318 1.30576C17.6448 1.30576 18.9345 1.93202 19.7676 2.98082C20.4387 3.82564 20.7478 4.84783 20.6668 5.91513C23.7162 6.04487 25.3098 8.52637 25.3098 10.9782C25.3098 12.2876 24.8718 13.5084 24.0758 14.4166C23.1673 15.4525 21.8736 16 20.3339 16H5.19944ZM9.57092 1.12082C6.9143 1.12082 4.11393 3.11812 4.02622 6.46041C4.02034 6.68402 3.88192 6.88268 3.67457 6.9659C1.51923 7.8295 0.878398 9.89545 1.19951 11.5601C1.49485 13.0912 2.71963 14.8795 5.19944 14.8795L20.3336 14.8792C22.9967 14.8792 24.1887 12.92 24.1887 10.9782C24.1887 8.99039 22.884 6.84373 20.0523 7.04352C19.8755 7.05725 19.702 6.98355 19.5866 6.84822C19.4711 6.71288 19.4269 6.53074 19.4669 6.35758C19.6933 5.3833 19.4882 4.43145 18.8894 3.67769C18.2668 2.89424 17.3057 2.4263 16.3174 2.4263C15.6385 2.4263 14.982 2.65186 14.4196 3.07833C14.1845 3.25627 13.8525 3.2218 13.6586 3.00016C12.6025 1.78827 11.1507 1.12082 9.57092 1.12082Z" fill="#31BCFE"/>
<path d="M14.7027 12C14.7757 11.958 14.8466 11.9135 14.9161 11.8672C15.0113 11.8024 15.1033 11.7342 15.1921 11.6612C15.2805 11.5881 15.3649 11.5111 15.4457 11.4303C15.5273 11.3497 15.6045 11.2646 15.6772 11.1764C15.7502 11.0885 15.8192 10.9964 15.8833 10.9015C15.9476 10.806 16.0076 10.7079 16.0629 10.6065C16.1182 10.5052 16.1681 10.4012 16.2133 10.2936C16.2591 10.1869 16.2988 10.0777 16.3339 9.96548C16.369 9.85319 16.3981 9.7394 16.422 9.62298C16.4458 9.50664 16.4642 9.38783 16.4767 9.26807C16.4885 9.14743 16.4951 9.02568 16.4951 8.90234L13.5458 8.90234C13.5458 9.13207 13.4228 9.33316 13.2385 9.44362L14.7027 12Z" fill="#31BCFE"/>
<path d="M11.1256 12C11.0532 11.958 10.9817 11.9135 10.9122 11.8672C10.8172 11.8024 10.7249 11.7342 10.6369 11.6612C10.5485 11.5881 10.4634 11.5111 10.3825 11.4303C10.3011 11.3497 10.2244 11.2646 10.1513 11.1764C10.0782 11.0885 10.0099 10.9964 9.94513 10.9015C9.88075 10.806 9.82083 10.7079 9.76537 10.6065C9.7107 10.5052 9.66025 10.4012 9.61513 10.2936C9.56993 10.1869 9.52942 10.0777 9.49449 9.96548C9.45979 9.85319 9.43003 9.7394 9.4064 9.62298C9.38253 9.50664 9.36414 9.38783 9.35221 9.26807C9.33979 9.14743 9.33383 9.02568 9.33383 8.90234L12.2824 8.90234C12.2824 9.13207 12.4055 9.33316 12.5898 9.44361L11.1256 12Z" fill="#31BCFE"/>
<path d="M11.1415 5.81349C11.2139 5.7714 11.2884 5.73208 11.3637 5.69532C11.4667 5.64559 11.5724 5.60039 11.68 5.56012C11.7871 5.52033 11.8965 5.48532 12.007 5.45572C12.1176 5.42595 12.2299 5.4016 12.3429 5.38274C12.456 5.36373 12.57 5.3506 12.6848 5.34232C12.7994 5.33396 12.9148 5.33158 13.0302 5.33452C13.1454 5.33747 13.2607 5.34646 13.3768 5.36054C13.4922 5.37487 13.6074 5.39516 13.7216 5.42054C13.8364 5.44617 13.9505 5.47816 14.0635 5.51556C14.1759 5.55296 14.2875 5.5968 14.3981 5.64622C14.5088 5.69532 14.6175 5.75126 14.7246 5.81293L13.2501 8.36279C13.0504 8.24773 12.8144 8.25346 12.6266 8.35794L11.1415 5.81349Z" fill="#31BCFE"/>
<path d="M13.335 8.90239C13.335 9.13451 13.1465 9.32263 12.9135 9.32263C12.6811 9.32263 12.4919 9.13443 12.4919 8.90239C12.4919 8.66971 12.6811 8.48151 12.9135 8.48151C13.1465 8.48151 13.335 8.66971 13.335 8.90239Z" fill="#31BCFE"/>
</svg>
