<svg width="14" height="14" viewBox="0 0 14 14" fill="none" xmlns="http://www.w3.org/2000/svg">
<path d="M6.99968 14C10.8596 14 14 10.8596 14 6.99968C14 3.14007 10.8596 0 6.99968 0C3.14039 0 0 3.14007 0 6.99968C0 10.8596 3.13943 14 6.99968 14ZM6.99968 0.962496C10.3288 0.962496 13.0372 3.67058 13.0372 6.99968C13.0372 10.3288 10.3288 13.0372 6.99968 13.0372C3.6709 13.0372 0.962496 10.3288 0.962496 6.99968C0.962496 3.6709 3.6709 0.962496 6.99968 0.962496Z" fill="#043598"/>
<path d="M6.662 7.34242L8.3434 9.02414C8.43744 9.11818 8.56068 9.16504 8.68392 9.16504C8.80716 9.16504 8.93072 9.11818 9.02475 9.02414C9.21282 8.83607 9.21282 8.5315 9.02475 8.34343L7.4804 6.79907V2.98824C7.4804 2.72251 7.26473 2.50684 6.99899 2.50684C6.73325 2.50684 6.51758 2.72251 6.51758 2.98824V6.99902C6.51726 7.13381 6.57278 7.25481 6.662 7.34242Z" fill="#043598"/>
</svg>
