<svg width="40" height="40" viewBox="0 0 40 40" fill="none" xmlns="http://www.w3.org/2000/svg">
<rect width="40" height="40" rx="3" fill="#043598"/>
<path fill-rule="evenodd" clip-rule="evenodd" d="M26.6663 18C26.6666 16.46 26.6667 15.336 26.6667 15.336C26.6667 15.3356 25.8702 15.3352 24.6667 15.3348V15.998C24.6667 16.3673 24.3708 16.6667 24 16.6667C23.6318 16.6667 23.3333 16.3676 23.3333 15.998V15.3345C21.2971 15.3341 18.7023 15.3338 16.6667 15.3336V15.998C16.6667 16.3673 16.3708 16.6667 16 16.6667C15.6318 16.6667 15.3333 16.3676 15.3333 15.998V15.3335C14.1316 15.3334 13.3366 15.3333 13.3366 15.3333C13.336 15.3333 13.3354 16.4586 13.3349 18H26.6663ZM26.6661 19.3333H13.3345C13.3337 22.5946 13.3333 26.664 13.3333 26.664C13.3333 26.6659 26.6634 26.6667 26.6634 26.6667C26.6647 26.6667 26.6656 22.5951 26.6661 19.3333ZM24.6667 14H26.6634C27.4016 14 28 14.5971 28 15.336V26.664C28 27.4018 27.402 28 26.6634 28H13.3366C12.5984 28 12 27.4029 12 26.664V15.336C12 14.5982 12.598 14 13.3366 14H15.3333V12.6686C15.3333 12.2994 15.6292 12 16 12C16.3682 12 16.6667 12.299 16.6667 12.6686V14H23.3333V12.6686C23.3333 12.2994 23.6292 12 24 12C24.3682 12 24.6667 12.299 24.6667 12.6686V14Z" fill="white"/>
</svg>
