<svg width="26" height="16" viewBox="0 0 26 16" fill="none" xmlns="http://www.w3.org/2000/svg">
<path d="M0.517862 0.000628048C0.375784 0.014018 0.243856 0.0800685 0.148024 0.185809C0.0521924 0.291549 -0.000608517 0.429321 5.29212e-06 0.572022V15.4286C2.20741e-05 15.5801 0.0602314 15.7255 0.167392 15.8326C0.274552 15.9398 0.419887 16 0.571434 16H4.00001C4.15155 16 4.29689 15.9398 4.40405 15.8326C4.51121 15.7255 4.57142 15.5801 4.57143 15.4286V11.4287H20.5714V15.4286C20.5715 15.5801 20.6317 15.7255 20.7388 15.8326C20.846 15.9398 20.9913 16 21.1429 16H24.5714C24.723 16 24.8683 15.9398 24.9755 15.8326C25.0826 15.7255 25.1428 15.5801 25.1429 15.4286V0.572022C25.1428 0.420481 25.0826 0.275159 24.9755 0.168004C24.8683 0.0608491 24.723 0.0006432 24.5714 0.000628048H0.571434C0.553587 -0.000209349 0.53571 -0.000209349 0.517862 0.000628048ZM1.14286 1.14342H24V14.8572H21.7143V10.902C21.7149 10.8871 21.7149 10.8722 21.7143 10.8574V8.61635C21.7149 8.60148 21.7149 8.5866 21.7143 8.57173C21.7151 8.55388 21.7151 8.536 21.7143 8.51815V6.28608C21.7151 6.26823 21.7151 6.25036 21.7143 6.23251V4.1344C21.7143 3.98286 21.6541 3.83752 21.5469 3.73036C21.4397 3.62321 21.2944 3.563 21.1429 3.56299H4.00001C3.84846 3.563 3.70312 3.62321 3.59596 3.73036C3.4888 3.83752 3.42859 3.98286 3.42858 4.1344V6.24146C3.428 6.25633 3.428 6.27121 3.42858 6.28608V8.57173C3.42744 8.59255 3.42744 8.6134 3.42858 8.63423V10.8574C3.42744 10.8782 3.42744 10.899 3.42858 10.9199V14.8572H1.14286V1.14342ZM4.57143 4.70579H20.5714V5.71469H4.57143V4.70579ZM4.57143 6.85747H20.5714V8.00031H4.57143V6.85747ZM4.57143 9.14312H20.5714V10.2859H4.57143V9.14312Z" fill="white"/>
</svg>
