<svg width="14" height="16" viewBox="0 0 14 16" fill="none" xmlns="http://www.w3.org/2000/svg">
<path fill-rule="evenodd" clip-rule="evenodd" d="M11.7038 12.396C11.7326 11.8408 11.7383 10.7821 11.7411 10.2528C11.7446 9.58773 11.8775 9.71329 11.2136 9.65851C10.7272 9.61855 9.7763 9.55083 9.3009 9.51705C8.8254 9.48311 8.8254 9.48311 8.56497 9.73778C8.30454 9.99245 7.78393 10.5019 7.52341 10.7564C7.26307 11.0112 7.26307 11.0112 7.09131 10.9139C5.782 10.1716 4.16135 8.53763 3.437 7.25948C3.33973 7.08769 3.33973 7.08769 3.59439 6.82743C3.84895 6.56702 4.35833 6.04625 4.61305 5.78575C4.8677 5.52549 4.8677 5.52549 4.83389 5.05002C4.80007 4.57456 4.73229 3.62372 4.69212 3.13726C4.63753 2.47346 4.76319 2.60612 4.09807 2.60986C3.56857 2.61263 2.51006 2.6183 1.9549 2.64692C1.38857 2.67605 1.27306 2.63567 1.25675 3.19064C1.22389 4.30496 1.37851 5.43489 1.79177 6.47264C2.75233 8.88333 5.42947 11.5833 7.87824 12.5591C8.87604 12.9564 10.0832 13.1258 11.1603 13.0941C11.7152 13.0777 11.6747 12.9622 11.7038 12.396Z" fill="#043598"/>
</svg>
