<svg width="12" height="16" viewBox="0 0 12 16" fill="none" xmlns="http://www.w3.org/2000/svg">
<path d="M5.66631 15.4398L5.65843 15.4325L5.65024 15.4256C5.65031 15.4256 5.64999 15.4254 5.64924 15.4247C5.64827 15.4239 5.64656 15.4224 5.64401 15.4201L5.62696 15.4048C5.61268 15.3919 5.59364 15.3744 5.57007 15.3523C5.52296 15.3083 5.45908 15.2473 5.38086 15.1705C5.22443 15.0168 5.01182 14.8009 4.76237 14.531C4.26302 13.9907 3.61912 13.2374 2.98333 12.3378C1.70113 10.5235 0.5 8.18087 0.5 5.81818C0.5 4.40771 1.06031 3.05501 2.05766 2.05766C3.05501 1.06031 4.40771 0.5 5.81818 0.5C7.22865 0.5 8.58135 1.06031 9.5787 2.05766C10.5761 3.05501 11.1364 4.40771 11.1364 5.81818C11.1364 8.14752 9.93594 10.489 8.65291 12.3123C8.01701 13.2159 7.37308 13.9751 6.87391 14.5205C6.62455 14.7929 6.41207 15.0111 6.25582 15.1664C6.17768 15.2441 6.1139 15.3057 6.06689 15.3503C6.04337 15.3726 6.02437 15.3903 6.01012 15.4034L5.9931 15.4189C5.99082 15.4209 5.98922 15.4223 5.9882 15.4232C5.98726 15.4241 5.98683 15.4244 5.98684 15.4244L5.97877 15.4314L5.971 15.4386C5.92949 15.4775 5.87493 15.4994 5.8181 15.5C5.76181 15.4994 5.70771 15.478 5.66631 15.4398ZM5.45857 14.591L5.82128 14.9665L6.18076 14.5879C6.80921 13.9261 7.92522 12.6667 8.8869 11.1199C9.84261 9.58269 10.6818 7.70497 10.6818 5.81818C10.6818 4.52827 10.1694 3.29118 9.25729 2.37907C8.34518 1.46696 7.1081 0.954545 5.81818 0.954545C4.52827 0.954545 3.29118 1.46696 2.37907 2.37907C1.46696 3.29118 0.954545 4.52827 0.954545 5.81818C0.954545 7.72582 1.79106 9.60678 2.74691 11.142C3.70822 12.686 4.82498 13.9351 5.45857 14.591Z" stroke="#31BCFE"/>
<path d="M5.81792 7.86337C5.41336 7.86337 5.0179 7.74341 4.68152 7.51865C4.34515 7.29389 4.08298 6.97444 3.92816 6.60068C3.77335 6.22692 3.73284 5.81565 3.81176 5.41887C3.89069 5.02209 4.0855 4.65762 4.37156 4.37156C4.65762 4.0855 5.02209 3.89069 5.41887 3.81176C5.81565 3.73284 6.22692 3.77335 6.60068 3.92816C6.97444 4.08298 7.29389 4.34515 7.51865 4.68152C7.74341 5.0179 7.86337 5.41336 7.86337 5.81792C7.86337 6.36041 7.64787 6.88067 7.26427 7.26427C6.88067 7.64787 6.36041 7.86337 5.81792 7.86337ZM5.81792 4.22701C5.50326 4.22701 5.19568 4.32031 4.93406 4.49512C4.67243 4.66994 4.46852 4.9184 4.34811 5.2091C4.2277 5.4998 4.19619 5.81968 4.25758 6.12829C4.31896 6.43689 4.47048 6.72037 4.69297 6.94286C4.91547 7.16535 5.19894 7.31687 5.50755 7.37826C5.81615 7.43964 6.13603 7.40814 6.42673 7.28772C6.71743 7.16731 6.9659 6.9634 7.14071 6.70178C7.31552 6.44015 7.40883 6.13257 7.40883 5.81792C7.40883 5.39598 7.24121 4.99133 6.94286 4.69297C6.64451 4.39462 6.23985 4.22701 5.81792 4.22701Z" stroke="#31BCFE"/>
</svg>
