<svg width="28" height="18" viewBox="0 0 28 18" fill="none" xmlns="http://www.w3.org/2000/svg">
<path d="M5.51282 18C5.51282 16.4903 5.51282 6.70427 5.51282 2M5.51282 2L1 6.51282M5.51282 2L10.0256 6.51282" stroke="white" stroke-width="2"/>
<path d="M22.0803 14.978H18.399V18H16.3001V14.978H14.0254V13.2418H16.3001V11.7363H14.0254V10.011H16.3001V2H22.2012C23.9155 2 25.2745 2.4359 26.2781 3.30769C27.2818 4.17949 27.7836 5.35897 27.7836 6.84615C27.7836 8.40659 27.3001 9.61172 26.3331 10.4615C25.3734 11.304 24.0071 11.7289 22.2342 11.7363H18.399V13.2418H22.0803V14.978ZM18.399 10.011H22.2012C23.3367 10.011 24.2012 9.74359 24.7946 9.20879C25.388 8.67399 25.6847 7.89377 25.6847 6.86813C25.6847 5.93773 25.377 5.18681 24.7617 4.61538C24.1463 4.03663 23.3148 3.74359 22.2671 3.73626H18.399V10.011Z" fill="white"/>
</svg>
