<svg width="13" height="16" viewBox="0 0 13 16" fill="none" xmlns="http://www.w3.org/2000/svg">
<path fill-rule="evenodd" clip-rule="evenodd" d="M11.7333 5.99253C11.7336 5.89337 11.7062 5.79611 11.654 5.71175C11.6019 5.62739 11.5272 5.55931 11.4384 5.5152L9.89493 4.74347L10.3717 3.78933L10.9616 4.08427L11.5509 2.9056L10.3717 2.3152L9.30507 4.44853L7.46667 3.5296V2.13333C7.46667 1.54507 6.98827 1.06667 6.4 1.06667H2.13333C1.54507 1.06667 1.06667 1.54507 1.06667 2.13333V13.8667C1.06667 14.4544 1.54507 14.9333 2.13333 14.9333H10.6667C11.2549 14.9333 11.7333 14.4544 11.7333 13.8667V5.99253ZM12.8 5.99253V13.8667C12.8 15.0432 11.8432 16 10.6667 16H2.13333C0.9568 16 0 15.0432 0 13.8667V2.13333C0 0.9568 0.9568 0 2.13333 0H6.4C7.57653 0 8.53333 0.9568 8.53333 2.13333V2.8704L8.82827 3.0176L9.4176 1.83893C9.54507 1.58347 9.76427 1.3936 10.0347 1.30347C10.1675 1.25889 10.3079 1.24103 10.4476 1.25091C10.5874 1.2608 10.7238 1.29823 10.8491 1.36107L12.0283 1.95093C12.2832 2.07893 12.4731 2.2976 12.5632 2.56747C12.6533 2.83787 12.6325 3.12747 12.5051 3.38187L11.9157 4.56107C12.1822 4.69322 12.4062 4.89738 12.5625 5.15039C12.7188 5.4034 12.8011 5.69514 12.8 5.99253ZM2.13333 3.2H6.4V2.13333H2.13333V3.2ZM9.97707 6.77707L7.15413 9.6L9.97707 12.4229L9.22293 13.1771L6.4 10.3541L3.57707 13.1771L2.82293 12.4229L5.64587 9.6L2.82293 6.77707L3.57707 6.02293L6.4 8.84587L9.22293 6.02293L9.97707 6.77707Z" fill="#31BCFE"/>
</svg>
