<svg id='icon-views' viewBox="0 0 15 10"  xmlns="http://www.w3.org/2000/svg">
<path d="M14.3972 4.71029C14.2679 4.51888 11.1872 0 7.24254 0C3.29789 0 0.217187 4.51888 0.0878545 4.71029C0.0305838 4.79558 0 4.89598 0 4.99871C0 5.10143 0.0305838 5.20184 0.0878545 5.28712C0.217187 5.48112 3.29789 10 7.24254 10C11.1872 10 14.2679 5.48112 14.3972 5.2897C14.455 5.20415 14.4859 5.10326 14.4859 5C14.4859 4.89674 14.455 4.79584 14.3972 4.71029ZM7.24254 8.96534C4.37652 8.96534 1.87782 5.95706 1.15614 5C1.87782 4.04294 4.36876 1.03466 7.24254 1.03466C10.1163 1.03466 12.6073 4.04294 13.3289 5C12.6098 5.95706 10.1163 8.96534 7.24254 8.96534Z" />
<path d="M7.24266 2.15469C6.67991 2.15469 6.12979 2.32157 5.66188 2.63422C5.19397 2.94686 4.82928 3.39124 4.61393 3.91116C4.39857 4.43107 4.34222 5.00317 4.45201 5.55511C4.5618 6.10704 4.83279 6.61403 5.23071 7.01196C5.62864 7.40988 6.13563 7.68087 6.68756 7.79066C7.2395 7.90044 7.8116 7.8441 8.33151 7.62874C8.85143 7.41339 9.29581 7.0487 9.60845 6.58078C9.9211 6.11287 10.088 5.56276 10.088 5.00001C10.088 4.24539 9.7882 3.52167 9.2546 2.98807C8.721 2.45447 7.99728 2.15469 7.24266 2.15469ZM7.24266 6.81067C6.88454 6.81067 6.53447 6.70447 6.23671 6.50552C5.93895 6.30656 5.70687 6.02377 5.56983 5.69292C5.43279 5.36207 5.39693 4.998 5.46679 4.64677C5.53666 4.29554 5.70911 3.97291 5.96233 3.71968C6.21555 3.46646 6.53818 3.29401 6.88942 3.22415C7.24065 3.15428 7.60471 3.19014 7.93557 3.32718C8.26642 3.46423 8.54921 3.6963 8.74816 3.99406C8.94712 4.29183 9.05332 4.6419 9.05332 5.00001C9.05332 5.48023 8.86255 5.94078 8.52299 6.28034C8.18342 6.6199 7.72287 6.81067 7.24266 6.81067Z" />
</svg>
