<svg width="10" height="10" viewBox="0 0 10 10" fill="none" xmlns="http://www.w3.org/2000/svg">
<path d="M8.68518 5.16778C8.68518 5.47042 8.68518 5.77197 8.68518 6.0746C8.68518 6.53129 8.68518 6.98798 8.68518 7.44466C8.68518 7.59653 8.68955 7.74839 8.66989 7.89917C8.67754 7.84126 8.68518 7.78335 8.69283 7.72436C8.67207 7.87076 8.63383 8.0117 8.57702 8.14827C8.59887 8.09582 8.62072 8.04338 8.64257 7.99203C8.58576 8.12423 8.51365 8.24878 8.42625 8.36241C8.46012 8.3187 8.49508 8.27391 8.52895 8.23021C8.44154 8.34274 8.33994 8.44435 8.2274 8.53175C8.27111 8.49788 8.3159 8.46292 8.3596 8.42905C8.24489 8.51646 8.12143 8.58966 7.98923 8.64538C8.04167 8.62353 8.09411 8.60168 8.14546 8.57983C8.00999 8.63664 7.86795 8.67488 7.72155 8.69563C7.77946 8.68799 7.83736 8.68034 7.89636 8.67269C7.66802 8.70219 7.42984 8.68799 7.20041 8.68799C6.76448 8.68799 6.32964 8.68799 5.89371 8.68799C5.35945 8.68799 4.8241 8.68799 4.28985 8.68799C3.83425 8.68799 3.37756 8.68799 2.92197 8.68799C2.72313 8.68799 2.52428 8.68908 2.32653 8.68799C2.25005 8.68799 2.17466 8.68252 2.09928 8.67269C2.15718 8.68034 2.21509 8.68799 2.27409 8.69563C2.12769 8.67488 1.98675 8.63664 1.85018 8.57983C1.90262 8.60168 1.95506 8.62353 2.00641 8.64538C1.87421 8.58857 1.74966 8.51646 1.63604 8.42905C1.67974 8.46292 1.72453 8.49788 1.76824 8.53175C1.6557 8.44435 1.55409 8.34274 1.46669 8.23021C1.50056 8.27391 1.53552 8.3187 1.56939 8.36241C1.48199 8.24769 1.40879 8.12423 1.35307 7.99203C1.37492 8.04447 1.39677 8.09692 1.41862 8.14827C1.36181 8.01279 1.32357 7.87076 1.30281 7.72436C1.31046 7.78226 1.3181 7.84017 1.32575 7.89917C1.29625 7.67082 1.31046 7.43265 1.31046 7.20321C1.31046 6.76728 1.31046 6.33244 1.31046 5.89652C1.31046 5.36226 1.31046 4.82691 1.31046 4.29265C1.31046 3.83706 1.31046 3.38037 1.31046 2.92477C1.31046 2.72593 1.30936 2.52709 1.31046 2.32933C1.31046 2.25285 1.31592 2.17747 1.32575 2.10208C1.3181 2.15999 1.31046 2.21789 1.30281 2.27689C1.32357 2.13049 1.36181 1.98955 1.41862 1.85298C1.39677 1.90542 1.37492 1.95787 1.35307 2.00922C1.40988 1.87702 1.48199 1.75247 1.56939 1.63884C1.53552 1.68254 1.50056 1.72734 1.46669 1.77104C1.55409 1.65851 1.6557 1.5569 1.76824 1.46949C1.72453 1.50336 1.67974 1.53833 1.63604 1.57219C1.75075 1.48479 1.87421 1.41159 2.00641 1.35587C1.95397 1.37772 1.90153 1.39957 1.85018 1.42142C1.98565 1.36461 2.12769 1.32637 2.27409 1.30561C2.21618 1.31326 2.15828 1.32091 2.09928 1.32856C2.23148 1.31107 2.36477 1.31326 2.49806 1.31326C2.69144 1.31326 2.88482 1.31326 3.07821 1.31326C3.55019 1.31326 4.02326 1.31326 4.49525 1.31326C4.60669 1.31326 4.71922 1.31326 4.83066 1.31326C4.99891 1.31326 5.17481 1.24006 5.2939 1.12097C5.40753 1.00735 5.49275 0.820519 5.48619 0.657729C5.47854 0.488383 5.42282 0.312482 5.2939 0.194486C5.16607 0.0764908 5.00765 0.00219727 4.83066 0.00219727C4.55424 0.00219727 4.27783 0.00219727 4.0025 0.00219727C3.55565 0.00219727 3.1088 0.00219727 2.66194 0.00219727C2.55378 0.00219727 2.44453 0.00219727 2.33636 0.00219727C1.95725 0.00219727 1.59889 0.0950642 1.2602 0.262225C1.07228 0.355092 0.898564 0.485105 0.743421 0.624952C0.590464 0.763706 0.457172 0.931959 0.347917 1.10568C0.119574 1.46622 0.00267068 1.90324 0.000485579 2.32824C-0.000606973 2.4812 0.000485579 2.63416 0.000485579 2.78821C0.000485579 3.16404 0.000485579 3.53988 0.000485579 3.91572C0.000485579 4.38879 0.000485579 4.86078 0.000485579 5.33385C0.000485579 5.77743 0.000485579 6.221 0.000485579 6.66458C0.000485579 6.95301 0.000485579 7.24254 0.000485579 7.53097C0.000485579 7.57795 0.000485579 7.62493 0.000485579 7.67301C0.00157813 8.07834 0.108648 8.48368 0.31077 8.83548C0.72157 9.5511 1.50602 9.99687 2.32762 10.0001C2.49697 10.0012 2.66631 10.0001 2.83566 10.0001C3.22024 10.0001 3.60482 10.0001 3.98939 10.0001C4.46356 10.0001 4.93773 10.0001 5.4119 10.0001C5.85001 10.0001 6.28812 10.0001 6.72624 10.0001C7.00265 10.0001 7.27907 10.0001 7.55548 10.0001C8.0373 10.0001 8.51584 9.904 8.92336 9.63305C9.2697 9.40361 9.57561 9.08786 9.75261 8.70765C9.8422 8.51427 9.92086 8.31652 9.95364 8.10456C9.97658 7.95707 9.99625 7.80958 9.99625 7.6599C9.99625 7.33541 9.99625 7.01201 9.99625 6.68752C9.99625 6.25706 9.99625 5.82769 9.99625 5.39722C9.99625 5.32074 9.99625 5.24536 9.99625 5.16888C9.99625 5.00062 9.92305 4.82472 9.80396 4.70563C9.69033 4.59201 9.50351 4.50679 9.34072 4.51335C9.17137 4.52099 8.99547 4.57671 8.87747 4.70563C8.75948 4.83237 8.68518 4.9897 8.68518 5.16778Z" fill="#043598"/>
<path d="M6.91516 1.31155C7.1883 1.31155 7.46253 1.31155 7.73567 1.31155C8.1716 1.31155 8.60643 1.31155 9.04236 1.31155C9.14178 1.31155 9.24121 1.31155 9.34063 1.31155C9.50888 1.31155 9.68478 1.23835 9.80387 1.11926C9.9175 1.00564 10.0027 0.81881 9.99616 0.65602C9.98851 0.486674 9.93279 0.310773 9.80387 0.192777C9.67604 0.0747818 9.51762 0.000488281 9.34063 0.000488281C9.06749 0.000488281 8.79326 0.000488281 8.52012 0.000488281C8.08419 0.000488281 7.64936 0.000488281 7.21343 0.000488281C7.11401 0.000488281 7.01459 0.000488281 6.91516 0.000488281C6.74691 0.000488281 6.57101 0.0736893 6.45192 0.192777C6.33829 0.306403 6.25308 0.493229 6.25963 0.65602C6.26728 0.825365 6.323 1.00127 6.45192 1.11926C6.57975 1.23726 6.73708 1.31155 6.91516 1.31155Z" fill="#043598"/>
<path d="M9.99637 3.08147C9.99637 2.80834 9.99637 2.5341 9.99637 2.26097C9.99637 1.82504 9.99637 1.3902 9.99637 0.954274C9.99637 0.854852 9.99637 0.75543 9.99637 0.656008C9.99637 0.487754 9.92316 0.311854 9.80408 0.192765C9.69045 0.0791399 9.50362 -0.00607912 9.34083 0.000476189C9.17149 0.00812405 8.99559 0.0638442 8.87759 0.192765C8.7596 0.320594 8.6853 0.479014 8.6853 0.656008C8.6853 0.929146 8.6853 1.20338 8.6853 1.47651C8.6853 1.91244 8.6853 2.34728 8.6853 2.78321C8.6853 2.88263 8.6853 2.98205 8.6853 3.08147C8.6853 3.24973 8.7585 3.42563 8.87759 3.54472C8.99122 3.65834 9.17804 3.74356 9.34083 3.737C9.51018 3.72936 9.68608 3.67364 9.80408 3.54472C9.92207 3.41689 9.99637 3.25956 9.99637 3.08147Z" fill="#043598"/>
<path d="M5.46985 5.4534C5.61406 5.30919 5.75937 5.16388 5.90359 5.01966C6.24775 4.67551 6.59299 4.33026 6.93715 3.98611C7.35341 3.56984 7.76967 3.15358 8.18703 2.73623C8.54866 2.37459 8.9092 2.01405 9.27084 1.65242C9.44564 1.47761 9.62373 1.30389 9.79635 1.1269C9.79854 1.12471 9.80072 1.12253 9.804 1.11925C9.92309 1.00016 9.99629 0.824261 9.99629 0.656008C9.99629 0.495403 9.92528 0.303114 9.804 0.192766C9.67945 0.0780481 9.51557 -0.00717098 9.34076 0.000476888C9.16704 0.00812475 9.00316 0.0671226 8.87752 0.192766C8.7333 0.336983 8.58799 0.482292 8.44378 0.626509C8.09962 0.970663 7.75437 1.31591 7.41022 1.66006C6.99396 2.07633 6.5777 2.49259 6.16034 2.90994C5.79871 3.27158 5.43816 3.63212 5.07653 3.99376C4.90172 4.16856 4.72363 4.34228 4.55101 4.51927C4.54883 4.52146 4.54664 4.52364 4.54336 4.52692C4.42428 4.64601 4.35107 4.82191 4.35107 4.99016C4.35107 5.15077 4.42209 5.34306 4.54336 5.4534C4.66791 5.56812 4.8318 5.65334 5.00661 5.64569C5.18032 5.63805 5.3453 5.57905 5.46985 5.4534Z" fill="#043598"/>
</svg>
