<svg width="27" height="16" viewBox="0 0 27 16" fill="none" xmlns="http://www.w3.org/2000/svg">
<path d="M12 1.33333H10C9.63181 1.33333 9.33333 1.03486 9.33333 0.666667C9.33333 0.298477 9.63181 0 10 0H15.3333C15.7015 0 16 0.298477 16 0.666667C16 1.03486 15.7015 1.33333 15.3333 1.33333H13.3333V2H15.9531C16.6218 2 17.2463 2.3342 17.6172 2.89059L18.1589 3.70314C18.2825 3.8886 18.4907 4 18.7136 4H20C21.1046 4 22 4.89543 22 6H22.6667V5.74535C22.6667 5.00897 23.2636 4.41202 24 4.41202C24.207 4.41202 24.4112 4.46021 24.5963 4.55279L25.9296 5.21945C26.3813 5.44531 26.6667 5.90699 26.6667 6.41202V12.2546C26.6667 12.7597 26.3813 13.2214 25.9296 13.4472L24.5963 14.1139C23.9377 14.4432 23.1368 14.1762 22.8074 13.5176C22.7149 13.3325 22.6667 13.1283 22.6667 12.9213V12.6667H22V14C22 15.1046 21.1046 16 20 16H8.71358C8.04488 16 7.42041 15.6658 7.04948 15.1094L6.50779 14.2969C6.38415 14.1114 6.17599 14 5.95308 14H4.66667C3.5621 14 2.66667 13.1046 2.66667 12V8.66667H1.33333V12C1.33333 12.3682 1.03486 12.6667 0.666667 12.6667C0.298477 12.6667 0 12.3682 0 12V4C0 3.63181 0.298477 3.33333 0.666667 3.33333C1.03486 3.33333 1.33333 3.63181 1.33333 4V7.33333H2.66667V5.33333C2.66667 4.22876 3.5621 3.33333 4.66667 3.33333H5.44771C5.62452 3.33333 5.7941 3.2631 5.91913 3.13807L6.47139 2.58578C6.84647 2.21071 7.35519 2 7.88562 2H12V1.33333ZM20.6667 6C20.6667 5.63181 20.3682 5.33333 20 5.33333H18.7136C18.0449 5.33333 17.4204 4.99914 17.0495 4.44274L16.5078 3.6302C16.3841 3.44473 16.176 3.33333 15.9531 3.33333H7.88562C7.70881 3.33333 7.53923 3.40357 7.4142 3.52859L6.86194 4.08088C6.48687 4.45595 5.97815 4.66667 5.44771 4.66667H4.66667C4.29848 4.66667 4 4.96514 4 5.33333V12C4 12.3682 4.29848 12.6667 4.66667 12.6667H5.95308C6.62179 12.6667 7.24626 13.0009 7.61719 13.5573L8.15887 14.3698C8.28252 14.5553 8.49068 14.6667 8.71358 14.6667H20C20.3682 14.6667 20.6667 14.3682 20.6667 14V11.3333H24V12.9213L25.3333 12.2546V6.41202L24 5.74535V7.33333H20.6667V6Z" fill="#31BCFE"/>
</svg>
