<svg width="20" height="16" viewBox="0 0 20 16" fill="none" xmlns="http://www.w3.org/2000/svg">
<path d="M10.0258 1.51073C11.9485 1.5794 13.6652 2.33476 14.97 3.50215L16.0687 2.4721C14.4206 1.03004 12.3605 0.0686695 10.0258 0V1.51073ZM13.7339 6.04292L10.7811 9.06438C10.9871 9.54506 10.8498 10.0944 10.5064 10.4378C10.0258 10.9871 9.20172 10.9871 8.72103 10.4378C8.24034 9.95708 8.17167 9.20172 8.72103 8.65236C9.06438 8.30901 9.61373 8.24034 10.0944 8.44635L13.1159 5.42489L13.7339 6.04292ZM9.81974 9.33906C9.6824 9.20172 9.47639 9.20172 9.33906 9.33906C9.20172 9.47639 9.20172 9.6824 9.33906 9.81974C9.47639 9.95708 9.6824 9.95708 9.81974 9.81974C9.95708 9.6824 9.95708 9.47639 9.81974 9.33906ZM15.6567 4.18884C16.824 5.49356 17.5794 7.2103 17.6481 9.13305H19.1588C19.0901 6.79828 18.1288 4.7382 16.6867 3.09013L15.6567 4.18884ZM17.6481 10.0258C17.5794 11.9485 16.824 13.6652 15.6567 14.97L16.6867 16C18.1288 14.4206 19.0901 12.3605 19.1588 10.0258H17.6481ZM3.57082 14.97C2.33476 13.6652 1.5794 11.9485 1.51073 10.0258H0C0.137339 12.3605 1.03004 14.4206 2.4721 16L3.57082 14.97ZM1.51073 9.13305C1.5794 7.2103 2.33476 5.49356 3.57082 4.18884L2.4721 3.09013C1.03004 4.7382 0.137339 6.79828 0 9.13305H1.51073ZM4.18884 3.50215C5.49356 2.33476 7.2103 1.5794 9.13305 1.51073V0C6.79828 0.0686695 4.7382 1.03004 3.1588 2.4721L4.18884 3.50215Z" fill="#31BCFE"/>
</svg>
