<svg width="15" height="18" viewBox="0 0 15 18" fill="none" xmlns="http://www.w3.org/2000/svg">
<g opacity="0.3">
<path fill-rule="evenodd" clip-rule="evenodd" d="M13.3755 14.1668C13.4084 13.5324 13.4149 12.3224 13.4181 11.7175C13.4222 10.9574 13.574 11.1009 12.8153 11.0383C12.2594 10.9926 11.1726 10.9152 10.6293 10.8766C10.0859 10.8378 10.0859 10.8378 9.78826 11.1289C9.49063 11.4199 8.89564 12.0021 8.5979 12.293C8.30038 12.5842 8.30037 12.5842 8.10407 12.473C6.60773 11.6247 4.75554 9.75729 3.92772 8.29655C3.81656 8.10022 3.81656 8.10022 4.10759 7.80278C4.39852 7.50516 4.98066 6.91001 5.27178 6.61228C5.56281 6.31485 5.56281 6.31485 5.52416 5.77146C5.48552 5.22807 5.40805 4.14139 5.36215 3.58543C5.29975 2.82681 5.44337 2.97842 4.68323 2.98269C4.07808 2.98586 2.86836 2.99234 2.2339 3.02505C1.58666 3.05834 1.45464 3.0122 1.436 3.64644C1.39846 4.91995 1.57516 6.2113 2.04746 7.39731C3.14524 10.1524 6.20483 13.2381 9.00342 14.3532C10.1438 14.8073 11.5234 15.0009 12.7543 14.9647C13.3886 14.9459 13.3422 14.8139 13.3755 14.1668Z" fill="#043598"/>
</g>
</svg>
