<svg width="16" height="16" viewBox="0 0 16 16" fill="none" xmlns="http://www.w3.org/2000/svg">
<path d="M14.2462 12.5405V3.48348C14.991 3.26727 15.5195 2.59459 15.5195 1.77778C15.5195 0.792793 14.7027 0 13.7177 0C12.7327 0 11.9159 0.792793 11.9159 1.77778C11.9159 2.61862 12.4925 3.31532 13.2853 3.50751V7.35135H8.24024V3.50751C9.00901 3.29129 9.56156 2.61862 9.56156 1.8018C9.56156 0.816817 8.74474 0.0240241 7.75976 0.0240241C6.77477 0.0240241 5.95796 0.816817 5.95796 1.8018C5.95796 2.61862 6.51051 3.31532 7.27928 3.50751V7.35135H2.59459C2.47447 7.35135 2.23423 7.32733 2.23423 7.11111V3.50751C3.02703 3.31532 3.6036 2.61862 3.6036 1.77778C3.6036 0.792793 2.78679 0 1.8018 0C0.816817 0 0 0.792793 0 1.77778C0 2.57057 0.528528 3.24324 1.27327 3.48348V7.11111C1.27327 7.80781 1.82583 8.31231 2.59459 8.31231H7.27928V12.5165C6.51051 12.7327 5.95796 13.4054 5.95796 14.2222C5.95796 15.2072 6.77477 16 7.75976 16C8.74474 16 9.56156 15.2072 9.56156 14.2222C9.56156 13.4054 9.00901 12.7087 8.24024 12.5165V8.31231H13.2853V12.4925C12.4925 12.6847 11.9159 13.3814 11.9159 14.2222C11.9159 15.2072 12.7327 16 13.7177 16C14.7027 16 15.5195 15.2072 15.5195 14.2222C15.5195 13.4294 14.991 12.7568 14.2462 12.5405ZM6.91892 1.77778C6.91892 1.32132 7.3033 0.960961 7.75976 0.960961C8.21622 0.960961 8.6006 1.32132 8.6006 1.77778C8.6006 2.23423 8.21622 2.59459 7.75976 2.59459C7.3033 2.59459 6.91892 2.23423 6.91892 1.77778ZM0.960961 1.77778C0.960961 1.32132 1.34535 0.960961 1.8018 0.960961C2.25826 0.960961 2.64264 1.32132 2.64264 1.77778C2.64264 2.23423 2.25826 2.59459 1.8018 2.59459C1.34535 2.59459 0.960961 2.23423 0.960961 1.77778ZM8.6006 14.2222C8.6006 14.6787 8.21622 15.039 7.75976 15.039C7.3033 15.039 6.91892 14.6787 6.91892 14.2222C6.91892 13.7658 7.3033 13.4054 7.75976 13.4054C8.21622 13.4054 8.6006 13.7658 8.6006 14.2222ZM12.8769 1.77778C12.8769 1.32132 13.2613 0.960961 13.7177 0.960961C14.1742 0.960961 14.5586 1.32132 14.5586 1.77778C14.5586 2.23423 14.1742 2.59459 13.7177 2.59459C13.2613 2.59459 12.8769 2.23423 12.8769 1.77778ZM13.7177 15.039C13.2613 15.039 12.8769 14.6787 12.8769 14.2222C12.8769 13.7658 13.2613 13.4054 13.7177 13.4054C14.1742 13.4054 14.5586 13.7658 14.5586 14.2222C14.5586 14.6787 14.1742 15.039 13.7177 15.039Z" fill="#31BCFE"/>
</svg>
