<svg width="11" height="14" viewBox="0 0 11 14" fill="none" xmlns="http://www.w3.org/2000/svg">
<path d="M5.09091 14C4.93167 13.9995 4.7784 13.9393 4.66136 13.8314C4.45455 13.6564 0 9.49773 0 5.09091C0 3.74072 0.536362 2.44582 1.49109 1.49109C2.44582 0.536362 3.74072 0 5.09091 0C6.4411 0 7.73599 0.536362 8.69073 1.49109C9.64546 2.44582 10.1818 3.74072 10.1818 5.09091C10.1818 9.44045 5.72727 13.6532 5.52364 13.8282C5.40628 13.9381 5.25168 13.9994 5.09091 14ZM5.09091 1.27273C4.07826 1.27273 3.10709 1.675 2.39105 2.39105C1.675 3.10709 1.27273 4.07826 1.27273 5.09091C1.27273 8.19 4.00591 11.34 5.09091 12.4632C6.16955 11.3273 8.90909 8.15182 8.90909 5.09091C8.90909 4.07826 8.50682 3.10709 7.79077 2.39105C7.07472 1.675 6.10355 1.27273 5.09091 1.27273Z" fill="white"/>
<path d="M5.09055 7.31819C4.65004 7.31819 4.21942 7.18757 3.85315 6.94283C3.48688 6.69809 3.2014 6.35024 3.03282 5.94326C2.86425 5.53628 2.82014 5.08845 2.90608 4.6564C2.99202 4.22435 3.20415 3.82749 3.51563 3.516C3.82712 3.20451 4.22399 2.99238 4.65604 2.90644C5.08808 2.8205 5.53591 2.86461 5.94289 3.03319C6.34988 3.20177 6.69773 3.48724 6.94246 3.85351C7.1872 4.21979 7.31783 4.65041 7.31783 5.09092C7.31783 5.68163 7.08317 6.24815 6.66547 6.66584C6.24778 7.08354 5.68126 7.31819 5.09055 7.31819ZM5.09055 4.13638C4.90176 4.13638 4.71721 4.19236 4.56024 4.29725C4.40326 4.40213 4.28092 4.55121 4.20867 4.72563C4.13642 4.90005 4.11752 5.09198 4.15435 5.27714C4.19118 5.46231 4.28209 5.63239 4.41559 5.76589C4.54909 5.89938 4.71917 5.99029 4.90433 6.02712C5.0895 6.06396 5.28142 6.04505 5.45584 5.97281C5.63026 5.90056 5.77934 5.77821 5.88423 5.62124C5.98912 5.46426 6.0451 5.27971 6.0451 5.09092C6.0451 4.83776 5.94453 4.59497 5.76552 4.41596C5.58651 4.23694 5.34372 4.13638 5.09055 4.13638Z" fill="white"/>
</svg>
