<svg width="11" height="14" viewBox="0 0 11 14" fill="none" xmlns="http://www.w3.org/2000/svg">
<path d="M5.09091 14C4.93167 13.9995 4.7784 13.9393 4.66136 13.8314C4.45455 13.6564 0 9.49773 0 5.09091C0 3.74072 0.536362 2.44582 1.49109 1.49109C2.44582 0.536362 3.74072 0 5.09091 0C6.4411 0 7.73599 0.536362 8.69073 1.49109C9.64546 2.44582 10.1818 3.74072 10.1818 5.09091C10.1818 9.44045 5.72727 13.6532 5.52364 13.8282C5.40628 13.9381 5.25168 13.9994 5.09091 14ZM5.09091 1.27273C4.07826 1.27273 3.10709 1.675 2.39105 2.39105C1.675 3.10709 1.27273 4.07826 1.27273 5.09091C1.27273 8.19 4.00591 11.34 5.09091 12.4632C6.16955 11.3273 8.90909 8.15182 8.90909 5.09091C8.90909 4.07826 8.50682 3.10709 7.79077 2.39105C7.07472 1.675 6.10355 1.27273 5.09091 1.27273Z" fill="#043598"/>
<path d="M5.09092 7.31832C4.65041 7.31832 4.21979 7.18769 3.85351 6.94295C3.48724 6.69822 3.20177 6.35036 3.03319 5.94338C2.86461 5.5364 2.8205 5.08857 2.90644 4.65652C2.99238 4.22448 3.20451 3.82761 3.516 3.51612C3.82749 3.20463 4.22435 2.99251 4.6564 2.90657C5.08845 2.82063 5.53628 2.86474 5.94326 3.03331C6.35024 3.20189 6.69809 3.48736 6.94283 3.85364C7.18757 4.21991 7.31819 4.65053 7.31819 5.09104C7.31819 5.68175 7.08354 6.24827 6.66584 6.66596C6.24815 7.08366 5.68163 7.31832 5.09092 7.31832ZM5.09092 4.1365C4.90213 4.1365 4.71758 4.19248 4.5606 4.29737C4.40363 4.40225 4.28128 4.55133 4.20904 4.72575C4.13679 4.90018 4.11789 5.0921 4.15472 5.27727C4.19155 5.46243 4.28246 5.63251 4.41596 5.76601C4.54945 5.8995 4.71954 5.99042 4.9047 6.02725C5.08986 6.06408 5.28179 6.04517 5.45621 5.97293C5.63063 5.90068 5.77971 5.77833 5.8846 5.62136C5.98948 5.46439 6.04547 5.27983 6.04547 5.09104C6.04547 4.83788 5.9449 4.59509 5.76589 4.41608C5.58687 4.23707 5.34408 4.1365 5.09092 4.1365Z" fill="#043598"/>
</svg>
