<svg width="17" height="16" viewBox="0 0 17 16" fill="none" xmlns="http://www.w3.org/2000/svg">
<path d="M0 16C0 14.3999 0.651296 12.8653 1.81061 11.7339C2.96993 10.6025 4.54229 9.96682 6.18181 9.96682C7.82133 9.96682 9.3937 10.6025 10.553 11.7339C11.7123 12.8653 12.3636 14.3999 12.3636 16H10.8182C10.8182 14.7999 10.3297 13.649 9.46022 12.8004C8.59073 11.9518 7.41145 11.4751 6.18181 11.4751C4.95217 11.4751 3.7729 11.9518 2.90341 12.8004C2.03393 13.649 1.54545 14.7999 1.54545 16H0ZM6.18181 9.21267C3.62022 9.21267 1.54545 7.18778 1.54545 4.68778C1.54545 2.18778 3.62022 0.162896 6.18181 0.162896C8.7434 0.162896 10.8182 2.18778 10.8182 4.68778C10.8182 7.18778 8.7434 9.21267 6.18181 9.21267ZM6.18181 7.70437C7.88954 7.70437 9.27272 6.35445 9.27272 4.68778C9.27272 3.02112 7.88954 1.67119 6.18181 1.67119C4.47409 1.67119 3.09091 3.02112 3.09091 4.68778C3.09091 6.35445 4.47409 7.70437 6.18181 7.70437ZM15.878 0C16.6184 1.45688 17.0025 3.06153 17 4.68778C17 6.3718 16.5959 7.9638 15.878 9.37557L14.6069 8.47361C15.1672 7.28655 15.4565 5.99477 15.4545 4.68778C15.4545 3.33635 15.1509 2.05354 14.6069 0.901961L15.878 0ZM13.3264 1.80995C13.7124 2.72259 13.9104 3.70048 13.9091 4.68778C13.9104 5.67509 13.7124 6.65297 13.3264 7.56561L12.0306 6.64555C12.2517 6.01541 12.3642 5.35385 12.3636 4.68778C12.3645 4.02176 12.2522 3.3602 12.0314 2.73002L13.3264 1.80995Z" fill="#043598"/>
</svg>
