<svg id="odnoklassniki-icon"  xmlns="http://www.w3.org/2000/svg">
<path d="M0.110488 6.44054C-0.196011 7.04304 0.151988 7.33104 0.945984 7.82304C1.62098 8.24003 2.55348 8.39253 3.15248 8.45353C2.90698 8.68953 4.03197 7.60754 0.791985 10.724C0.104988 11.3825 1.21098 12.439 1.89748 11.7945L3.75597 10.002C4.46747 10.6865 5.14947 11.3425 5.61447 11.797C6.30146 12.444 7.40696 11.3965 6.72746 10.7265C6.67646 10.678 4.20897 8.31103 4.35947 8.45603C4.96597 8.39503 5.88446 8.23353 6.55146 7.82554L6.55096 7.82504C7.34496 7.33054 7.69296 7.04304 7.39096 6.44054C7.20846 6.09854 6.71646 5.81254 6.06146 6.30704C6.06146 6.30704 5.17697 6.98454 3.75047 6.98454C2.32348 6.98454 1.43948 6.30704 1.43948 6.30704C0.784985 5.81004 0.290987 6.09854 0.110488 6.44054Z" />
<path d="M3.74933 6.07098C5.48832 6.07098 6.90832 4.71198 6.90832 3.03899C6.90832 1.35899 5.48832 0 3.74933 0C2.00984 0 0.589844 1.35899 0.589844 3.03899C0.589844 4.71198 2.00984 6.07098 3.74933 6.07098ZM3.74933 1.53949C4.60383 1.53949 5.30083 2.20999 5.30083 3.03899C5.30083 3.86098 4.60383 4.53148 3.74933 4.53148C2.89483 4.53148 2.19784 3.86098 2.19784 3.03899C2.19734 2.20949 2.89433 1.53949 3.74933 1.53949Z" />
</svg>
