<svg width="80" height="80" viewBox="0 0 80 80" fill="none" xmlns="http://www.w3.org/2000/svg">
<g opacity="0.05">
<path d="M80.0004 2.0141L77.9863 0L0.000427776 77.9859L2.01453 80L80.0004 2.0141Z" fill="white"/>
<path d="M14.6775 34.902C7.8603 34.902 2.31543 29.3571 2.31543 22.54V17.5268C2.31543 10.7097 7.8603 5.16479 14.6775 5.16479C21.4946 5.16479 27.0395 10.7097 27.0395 17.5268V22.54C27.0395 29.3571 21.4946 34.902 14.6775 34.902ZM14.6775 8.01319C9.42692 8.01319 5.16382 12.2763 5.16382 17.5268V22.54C5.16382 27.7905 9.42692 32.0536 14.6775 32.0536C19.928 32.0536 24.1911 27.7905 24.1911 22.54V17.5268C24.1911 12.2763 19.928 8.01319 14.6775 8.01319Z" fill="white"/>
<path d="M65.322 74.8366C58.5048 74.8366 52.96 69.2917 52.96 62.4746V57.4614C52.96 50.6442 58.5048 45.0994 65.322 45.0994C72.1391 45.0994 77.684 50.6442 77.684 57.4614V62.4746C77.684 69.2917 72.1391 74.8366 65.322 74.8366ZM65.322 47.9478C60.0714 47.9478 55.8084 52.2109 55.8084 57.4614V62.4746C55.8084 67.7251 60.0714 71.9882 65.322 71.9882C70.5725 71.9882 74.8356 67.7251 74.8356 62.4746V57.4614C74.8356 52.2109 70.5725 47.9478 65.322 47.9478Z" fill="white"/>
</g>
</svg>
