<svg width="16" height="16" viewBox="0 0 16 16" fill="none" xmlns="http://www.w3.org/2000/svg">
<path d="M8 8.8C9.3256 8.8 10.4 9.8744 10.4 11.2C10.4 11.88 10.1176 12.4928 9.664 12.9296L8.136 14.4H10.4V16H5.6V14.6208L8.5544 11.7768C8.7064 11.6304 8.8 11.4264 8.8 11.2C8.8 10.7584 8.4416 10.4 8 10.4C7.5584 10.4 7.2 10.7584 7.2 11.2H5.6C5.6 9.8744 6.6744 8.8 8 8.8ZM12.8 8.8V12H14.4V8.8H16V16H14.4V13.6H11.2V8.8H12.8ZM1.6 8C1.6 10.0216 2.5368 11.824 4 12.9968V14.9296C1.6088 13.5464 0 10.9616 0 8H1.6ZM8 0C12.148 0 15.5592 3.1576 15.96 7.2H14.3504C13.9568 4.0432 11.264 1.6 8 1.6C6.0288 1.6 4.2656 2.4912 3.092 3.892L4.8 5.6H0V0.8L1.9576 2.7568C3.424 1.0688 5.5872 0 8 0Z" fill="#043598"/>
</svg>
