<svg width="16" height="17" viewBox="0 0 16 17" fill="none" xmlns="http://www.w3.org/2000/svg">
<path d="M12.8889 16.4048C12.0638 16.4048 11.2724 16.077 10.689 15.4936C10.1056 14.9101 9.77778 14.1188 9.77778 13.2937C9.77778 12.4686 10.1056 11.6772 10.689 11.0938C11.2724 10.5103 12.0638 10.1826 12.8889 10.1826C13.714 10.1826 14.5053 10.5103 15.0888 11.0938C15.6722 11.6772 16 12.4686 16 13.2937C16 14.1188 15.6722 14.9101 15.0888 15.4936C14.5053 16.077 13.714 16.4048 12.8889 16.4048ZM12.8889 14.627C13.2425 14.627 13.5816 14.4865 13.8317 14.2365C14.0817 13.9864 14.2222 13.6473 14.2222 13.2937C14.2222 12.9401 14.0817 12.6009 13.8317 12.3509C13.5816 12.1008 13.2425 11.9603 12.8889 11.9603C12.5353 11.9603 12.1961 12.1008 11.9461 12.3509C11.696 12.6009 11.5556 12.9401 11.5556 13.2937C11.5556 13.6473 11.696 13.9864 11.9461 14.2365C12.1961 14.4865 12.5353 14.627 12.8889 14.627ZM3.11111 6.62701C2.70255 6.62701 2.298 6.54654 1.92054 6.39019C1.54308 6.23384 1.20012 6.00468 0.911223 5.71578C0.62233 5.42689 0.393167 5.08392 0.236819 4.70647C0.0804712 4.32901 0 3.92445 0 3.5159C0 3.10734 0.0804712 2.70278 0.236819 2.32533C0.393167 1.94787 0.62233 1.6049 0.911223 1.31601C1.20012 1.02712 1.54308 0.797952 1.92054 0.641604C2.298 0.485256 2.70255 0.404785 3.11111 0.404785C3.93623 0.404785 4.72755 0.732562 5.311 1.31601C5.89445 1.89946 6.22222 2.69078 6.22222 3.5159C6.22222 4.34101 5.89445 5.13234 5.311 5.71578C4.72755 6.29923 3.93623 6.62701 3.11111 6.62701ZM3.11111 4.84923C3.46473 4.84923 3.80387 4.70875 4.05392 4.45871C4.30397 4.20866 4.44444 3.86952 4.44444 3.5159C4.44444 3.16227 4.30397 2.82314 4.05392 2.57309C3.80387 2.32304 3.46473 2.18256 3.11111 2.18256C2.75749 2.18256 2.41835 2.32304 2.1683 2.57309C1.91825 2.82314 1.77778 3.16227 1.77778 3.5159C1.77778 3.86952 1.91825 4.20866 2.1683 4.45871C2.41835 4.70875 2.75749 4.84923 3.11111 4.84923ZM14.2853 0.862563L15.5422 2.11945L1.71556 15.947L0.458667 14.6901L14.2844 0.862563H14.2853Z" fill="#043598"/>
</svg>
