<svg width="13" height="16" viewBox="0 0 13 16" fill="none" xmlns="http://www.w3.org/2000/svg">
<path d="M9.68771 0V1.6H8.89077V4.1944C8.89077 5.1208 9.0908 6.0352 9.47732 6.876L12.8899 14.2968C13.1664 14.8992 12.9042 15.612 12.3049 15.8888C12.1479 15.9624 11.9773 16 11.8044 16H1.19542C0.53555 16 0 15.4624 0 14.8C0 14.6264 0.0374566 14.4544 0.109979 14.2968L3.52252 6.876C3.90904 6.036 4.10907 5.1208 4.10907 4.1944V1.6H3.31212V0H9.68771ZM7.60608 6.4008H5.39375C5.31087 6.6912 5.21045 6.9776 5.09569 7.2576L4.96977 7.5464L1.81784 14.4H11.1812L8.03006 7.5464C7.85951 7.1752 7.71766 6.792 7.60608 6.4008ZM5.70297 4.1944C5.70297 4.3968 5.695 4.5992 5.67986 4.8008H7.31998C7.31201 4.704 7.30723 4.6072 7.30324 4.5096L7.29687 4.1944V1.6H5.70297V4.1944Z" fill="#043598"/>
</svg>
