<svg width="16" height="17" viewBox="0 0 16 17" fill="none" xmlns="http://www.w3.org/2000/svg">
<path d="M2.48279 3.91251L0 1.47067L1.0833 0.404907L3.56533 2.8475H15.2344C15.3537 2.84749 15.4714 2.87493 15.578 2.92761C15.6846 2.9803 15.7773 3.05678 15.8485 3.15096C15.9198 3.24513 15.9677 3.35438 15.9884 3.47C16.0091 3.58562 16.002 3.7044 15.9678 3.81685L14.1304 9.84237C14.0831 9.99759 13.9862 10.1337 13.8541 10.2304C13.722 10.3272 13.5617 10.3794 13.397 10.3794H4.01396V11.8858H12.4354V13.3921H3.24837C3.04533 13.3921 2.8506 13.3128 2.70702 13.1715C2.56345 13.0303 2.48279 12.8387 2.48279 12.639V3.91251ZM4.01396 4.35388V8.87301H12.8274L14.2054 4.35388H4.01396ZM3.63117 16.4049C3.3266 16.4049 3.0345 16.2859 2.81914 16.074C2.60378 15.8621 2.48279 15.5748 2.48279 15.2751C2.48279 14.9755 2.60378 14.6881 2.81914 14.4762C3.0345 14.2644 3.3266 14.1453 3.63117 14.1453C3.93573 14.1453 4.22783 14.2644 4.44319 14.4762C4.65855 14.6881 4.77954 14.9755 4.77954 15.2751C4.77954 15.5748 4.65855 15.8621 4.44319 16.074C4.22783 16.2859 3.93573 16.4049 3.63117 16.4049ZM12.8182 16.4049C12.5136 16.4049 12.2215 16.2859 12.0062 16.074C11.7908 15.8621 11.6698 15.5748 11.6698 15.2751C11.6698 14.9755 11.7908 14.6881 12.0062 14.4762C12.2215 14.2644 12.5136 14.1453 12.8182 14.1453C13.1227 14.1453 13.4148 14.2644 13.6302 14.4762C13.8456 14.6881 13.9666 14.9755 13.9666 15.2751C13.9666 15.5748 13.8456 15.8621 13.6302 16.074C13.4148 16.2859 13.1227 16.4049 12.8182 16.4049Z" fill="#043598"/>
</svg>
