<svg width="15" height="16" viewBox="0 0 15 16" fill="none" xmlns="http://www.w3.org/2000/svg">
<path d="M11.8514 13.823C10.6466 14.9713 9.04778 15.5992 7.39382 15.5737C5.73986 15.5481 4.16072 14.8711 2.99106 13.686C1.82139 12.501 1.15313 10.9011 1.1279 9.22546C1.10267 7.54978 1.72245 5.93 2.8559 4.70938L0 1.8167L1.00052 0.803045L15 14.9871L13.9995 16L11.8514 13.8223V13.823ZM3.85642 5.72375C2.99334 6.67618 2.52674 7.92954 2.554 9.22218C2.58127 10.5148 3.1003 11.7468 4.00274 12.661C4.90519 13.5752 6.12129 14.101 7.39719 14.1285C8.67308 14.156 9.91015 13.6831 10.8501 12.8086L3.85712 5.72375H3.85642ZM13.4494 11.4103L12.3188 10.2648C12.5117 9.43364 12.4919 8.56632 12.2611 7.74512C12.0303 6.92393 11.5962 6.1761 11 5.5726L7.5 2.02588L5.84331 3.70432L4.8435 2.6921L7.5 0L11.9999 4.55894C12.8676 5.4379 13.466 6.55221 13.7232 7.76774C13.9804 8.98327 13.8853 10.2482 13.4494 11.4103Z" fill="#043598"/>
</svg>
