<svg width="21" height="14" viewBox="0 0 21 14" fill="none" xmlns="http://www.w3.org/2000/svg">
<path d="M20.6607 1.5042C20.5544 1.4428 20.4337 1.41047 20.3109 1.41047C20.1881 1.41047 20.0674 1.4428 19.9611 1.5042C19.9611 1.5042 18.6318 2.09889 15.3925 2.09889C13.7897 2.01825 12.211 1.67556 10.719 1.08443C9.08332 0.44315 7.35288 0.0767323 5.59768 0C1.7707 0 0.182542 2.30878 0.119575 2.41372C0.0430691 2.52756 0.00170935 2.66137 0.00063834 2.79852V13.293C-0.00599509 13.4482 0.0392234 13.6012 0.129164 13.7279C0.219105 13.8546 0.348651 13.9477 0.497376 13.9926C0.564647 14.0025 0.632997 14.0025 0.700269 13.9926C0.815503 13.992 0.928805 13.963 1.03011 13.908C1.13141 13.8531 1.21758 13.774 1.28096 13.6778C1.28096 13.6778 2.51231 11.8937 5.59768 11.8937C7.20047 11.9744 8.77923 12.3171 10.2712 12.9082C11.9069 13.5495 13.6373 13.9159 15.3925 13.9926C19.0166 13.9926 20.5418 13.251 20.6047 13.216C20.7201 13.1579 20.8172 13.0689 20.8851 12.959C20.953 12.8491 20.9892 12.7225 20.9895 12.5933V2.09889C20.9898 1.97999 20.9597 1.863 20.9022 1.75894C20.8446 1.65489 20.7615 1.56722 20.6607 1.5042ZM15.3925 12.5933C13.7897 12.5127 12.211 12.17 10.719 11.5789C9.08332 10.9376 7.35288 10.5712 5.59768 10.4945C4.10924 10.4565 2.6447 10.8739 1.3999 11.6908V8.64043C2.01469 7.96345 2.81132 7.4777 3.69469 7.24117C3.78289 7.21545 3.86516 7.1726 3.9368 7.11508C4.00844 7.05756 4.06806 6.98649 4.11223 6.90593C4.15641 6.82538 4.18429 6.7369 4.19427 6.64557C4.20426 6.55424 4.19616 6.46183 4.17043 6.37363C4.14471 6.28543 4.10186 6.20316 4.04434 6.13152C3.98682 6.05987 3.91575 6.00026 3.83519 5.95608C3.75464 5.91191 3.66616 5.88403 3.57483 5.87404C3.4835 5.86406 3.39109 5.87216 3.30289 5.89788C2.62454 6.09544 1.98211 6.40013 1.3999 6.80041V3.0364C1.93994 2.47665 2.59478 2.04049 3.31941 1.75788C4.04404 1.47528 4.82127 1.35293 5.59768 1.39926C7.20047 1.4799 8.77923 1.8226 10.2712 2.41372C11.9069 3.055 13.6373 3.42142 15.3925 3.49815C16.8042 3.52504 18.2139 3.37937 19.5903 3.06438V7.20619C18.8824 7.41099 18.1559 7.54458 17.4214 7.60498C17.2359 7.61426 17.0616 7.69687 16.937 7.83463C16.8123 7.9724 16.7475 8.15404 16.7568 8.33959C16.7661 8.52515 16.8487 8.69942 16.9864 8.82406C17.1242 8.94871 17.3058 9.01352 17.4914 9.00424H17.5614C18.2452 8.94377 18.9234 8.83151 19.5903 8.66842V12.1036C18.2221 12.4691 16.8081 12.634 15.3925 12.5933Z" fill="#043598"/>
</svg>
