<svg width="14" height="17" viewBox="0 0 14 17" fill="none" xmlns="http://www.w3.org/2000/svg">
<path d="M14 0.404907V7.60491H11.6659L11.6667 8.40491C11.6667 10.1729 10.2744 11.6049 8.55556 11.6049H7.483L7.00622 14.0937L7.71478 15.1505C7.959 15.5145 7.87033 16.0129 7.51644 16.2633C7.38656 16.3553 7.23256 16.4049 7.07467 16.4049H0L1.799 8.38571L0 7.60491L3.11111 0.404907H14ZM12.4444 2.00491H4.12222L2.065 6.76491L3.60889 7.43451L1.95533 14.8049H5.59378L5.35345 14.4465L6.96889 6.00491H12.4444V2.00491ZM10.1103 7.60491H8.24833L7.78867 10.0049H8.55556C9.415 10.0049 10.1111 9.28891 10.1111 8.40491L10.1103 7.60491Z" fill="#043598"/>
</svg>
