<svg width="15" height="17" viewBox="0 0 15 17" fill="none" xmlns="http://www.w3.org/2000/svg">
<path d="M8.33333 14.6967H13.3333V6.99078L7.5 2.34094L1.66667 6.99078V14.6967H6.66667V9.57193H8.33333V14.6967ZM15 15.5508C15 15.7773 14.9122 15.9946 14.7559 16.1547C14.5996 16.3149 14.3877 16.4049 14.1667 16.4049H0.833333C0.61232 16.4049 0.400358 16.3149 0.244078 16.1547C0.0877975 15.9946 2.00592e-07 15.7773 2.00592e-07 15.5508V6.57397C-8.7903e-05 6.44381 0.0288476 6.31535 0.0845967 6.19841C0.140346 6.08146 0.221433 5.97913 0.321667 5.89921L6.98833 0.584865C7.13462 0.468231 7.31467 0.404907 7.5 0.404907C7.68533 0.404907 7.86538 0.468231 8.01167 0.584865L14.6783 5.89921C14.7786 5.97913 14.8597 6.08146 14.9154 6.19841C14.9712 6.31535 15.0001 6.44381 15 6.57397V15.5508Z" fill="#043598"/>
</svg>
