<svg width="11" height="17" viewBox="0 0 11 17" fill="none" xmlns="http://www.w3.org/2000/svg">
<path d="M7.50206 10.3848C7.49799 9.89795 7.36815 9.42046 7.12514 8.99863C6.88213 8.5768 6.5342 8.22495 6.11511 7.97722L10.385 0.576931L9.38689 0L5.01548 7.5728C4.47899 7.45295 3.92102 7.46952 3.39259 7.62101C2.86416 7.77249 2.38215 8.05405 1.99063 8.43992C-0.169396 10.5232 -0.00208628 15.3937 0.00599076 15.6002C0.0119545 15.7492 0.075361 15.8901 0.182917 15.9933C0.290473 16.0966 0.433826 16.1542 0.582922 16.1541H9.23169C9.35278 16.1541 9.4708 16.116 9.56903 16.0452C9.66726 15.9744 9.74073 15.8745 9.77902 15.7596C9.81731 15.6447 9.81849 15.5207 9.78238 15.4051C9.74628 15.2895 9.67472 15.1882 9.57785 15.1156C7.53552 13.5833 7.50206 10.4159 7.50206 10.3848ZM4.57528 8.65223C5.03704 8.65731 5.47907 8.84022 5.80939 9.16292C6.13972 9.48561 6.33291 9.92324 6.34877 10.3848C6.34877 10.4067 6.34992 10.5048 6.35858 10.6553L2.95468 9.14147C3.1789 8.95658 3.43764 8.81811 3.71586 8.73412C3.99407 8.65014 4.28621 8.6223 4.57528 8.65223ZM6.60608 15.0002C6.14493 14.5307 5.85099 13.9225 5.76953 13.2694H4.61567C4.65699 13.8834 4.84879 14.4778 5.17414 15.0002H3.89162C3.65436 14.2515 3.51 13.4764 3.46181 12.6925H2.30795C2.34515 13.4741 2.47392 14.2486 2.6916 15.0002H1.15408C1.17197 13.941 1.32139 11.6009 2.19429 10.0657L6.54031 11.9984C6.74912 13.0827 7.1943 14.1076 7.84418 15.0002H6.60608Z" fill="#043598"/>
</svg>
