<svg width="16" height="17" viewBox="0 0 16 17" fill="none" xmlns="http://www.w3.org/2000/svg">
<path d="M8 0.404785C12.4184 0.404785 16 3.98639 16 8.40479C16 12.8232 12.4184 16.4048 8 16.4048C3.5816 16.4048 0 12.8232 0 8.40479C0 3.98639 3.5816 0.404785 8 0.404785ZM8 2.00479C4.4656 2.00479 1.6 4.87039 1.6 8.40479C1.6 11.9392 4.4656 14.8048 8 14.8048C11.5344 14.8048 14.4 11.9392 14.4 8.40479C14.4 4.87039 11.5344 2.00479 8 2.00479ZM8 2.80479C8.8144 2.80479 9.588 2.97838 10.2864 3.29119L9.036 4.54079C8.7056 4.45279 8.3584 4.40479 8 4.40479C5.7912 4.40479 4 6.19599 4 8.40479C4 9.50879 4.448 10.5088 5.1712 11.2336L4.04 12.3648L3.9152 12.236C2.976 11.2344 2.4 9.88638 2.4 8.40479C2.4 5.31199 4.9072 2.80479 8 2.80479ZM13.1136 6.11918C13.4256 6.81678 13.6 7.59119 13.6 8.40479C13.6 9.95119 12.9728 11.3512 11.96 12.3648L10.8288 11.2336C11.552 10.5088 12 9.50879 12 8.40479C12 8.04639 11.9528 7.69919 11.864 7.36879L13.1136 6.11918ZM11.3936 3.87919L12.5256 5.01039L9.5464 7.99119C9.5816 8.12319 9.6 8.26159 9.6 8.40479C9.6 9.28878 8.884 10.0048 8 10.0048C7.116 10.0048 6.4 9.28878 6.4 8.40479C6.4 7.52079 7.116 6.80479 8 6.80479C8.1432 6.80479 8.2816 6.82319 8.4136 6.85839L11.3944 3.87919H11.3936Z" fill="#043598"/>
</svg>
