<svg width="16" height="17" viewBox="0 0 16 17" fill="none" xmlns="http://www.w3.org/2000/svg">
<path d="M0 16.4049C0 14.7884 0.642175 13.238 1.78525 12.0949C2.92833 10.9518 4.47868 10.3097 6.09524 10.3097C7.7118 10.3097 9.26214 10.9518 10.4052 12.0949C11.5483 13.238 12.1905 14.7884 12.1905 16.4049H10.6667C10.6667 15.1925 10.185 14.0297 9.32773 13.1724C8.47042 12.3151 7.30766 11.8335 6.09524 11.8335C4.88282 11.8335 3.72006 12.3151 2.86275 13.1724C2.00544 14.0297 1.52381 15.1925 1.52381 16.4049H0ZM6.09524 9.54776C3.56952 9.54776 1.52381 7.50205 1.52381 4.97634C1.52381 2.45062 3.56952 0.404907 6.09524 0.404907C8.62095 0.404907 10.6667 2.45062 10.6667 4.97634C10.6667 7.50205 8.62095 9.54776 6.09524 9.54776ZM6.09524 8.02395C7.77905 8.02395 9.14286 6.66015 9.14286 4.97634C9.14286 3.29253 7.77905 1.92872 6.09524 1.92872C4.41143 1.92872 3.04762 3.29253 3.04762 4.97634C3.04762 6.66015 4.41143 8.02395 6.09524 8.02395ZM12.4069 10.8453C13.4776 11.3275 14.3863 12.1087 15.0237 13.095C15.6611 14.0812 16.0001 15.2306 16 16.4049H14.4762C14.4764 15.5241 14.2221 14.662 13.7441 13.9223C13.266 13.1826 12.5844 12.5966 11.7813 12.235L12.4061 10.8453H12.4069ZM11.8827 2.24338C12.6503 2.5598 13.3066 3.09713 13.7684 3.78718C14.2301 4.47723 14.4765 5.2889 14.4762 6.11919C14.4765 7.16478 14.0859 8.1727 13.381 8.94497C12.6761 9.71723 11.7079 10.198 10.6667 10.2929V8.75919C11.2312 8.67834 11.7549 8.41864 12.161 8.01821C12.5671 7.61778 12.8341 7.09772 12.9228 6.53438C13.0115 5.97104 12.9173 5.39409 12.654 4.88822C12.3907 4.38236 11.9721 3.97424 11.4598 3.72376L11.8827 2.24338Z" fill="#043598"/>
</svg>
