<svg width="33" height="12" viewBox="0 0 33 12" fill="none" xmlns="http://www.w3.org/2000/svg">
<path d="M31.9638 6.07669C31.8213 5.222 30.7346 4.64211 24.3693 3.26206C23.9124 3.16298 23.5346 3.081 23.3043 3.02576C21.7568 1.84423 20.4665 1.10182 19.2547 0.694786C16.9155 -0.0993122 8.55361 -0.446464 6.25008 0.945704C5.19972 1.57585 4.2937 2.2174 3.48713 2.90208C2.7326 2.96338 1.98768 3.0254 1.25132 3.09633C0.635077 3.14516 0.30646 3.75036 0.116489 5.18422C-0.0503146 6.44202 -0.183259 8.60441 0.800098 8.95584C1.79842 9.30655 2.87374 9.61949 3.9961 9.89215C4.38673 11.1132 5.53154 12 6.88023 12C7.92525 12 8.84801 11.4679 9.39262 10.6606C12.8324 10.6057 16.3068 10.6135 19.6717 10.6221C21.0585 10.6257 22.4457 10.6289 23.8336 10.6278C24.3771 11.4529 25.3127 12 26.3752 12C27.4448 12 28.3843 11.4411 28.9232 10.6014C29.584 10.5932 30.1657 10.5829 30.854 10.5697C31.1377 10.5654 31.4 10.4346 31.5925 10.2022C32.3855 9.24347 31.9685 6.10164 31.9638 6.07669ZM6.88023 10.6349C5.96281 10.6349 5.21647 9.88822 5.21647 8.97081C5.21647 8.05339 5.96281 7.30705 6.88023 7.30705C7.79765 7.30705 8.54399 8.05339 8.54399 8.97081C8.54434 9.88822 7.79765 10.6349 6.88023 10.6349ZM26.3752 10.6349C25.4517 10.6349 24.7004 9.88822 24.7004 8.97081C24.7004 8.05339 25.4517 7.30705 26.3752 7.30705C27.2926 7.30705 28.039 8.05339 28.039 8.97081C28.039 9.88822 27.2926 10.6349 26.3752 10.6349ZM30.5895 9.20961C30.1711 9.21745 29.7868 9.22422 29.3905 9.23028C29.3976 9.14474 29.4037 9.05884 29.4037 8.97116C29.4037 7.30135 28.045 5.94268 26.3752 5.94268C24.6993 5.94268 23.3357 7.30135 23.3357 8.97116C23.3357 9.06953 23.3414 9.16648 23.3506 9.26236C22.1249 9.26236 20.8999 9.26057 19.6753 9.25737C16.4739 9.24917 13.1728 9.24275 9.8916 9.28909C9.90265 9.18466 9.90871 9.07844 9.90871 8.97116C9.90871 7.30135 8.55005 5.94268 6.88023 5.94268C5.38363 5.94268 4.14045 7.0351 3.89772 8.46362C3.04232 8.24514 2.22078 8.00171 1.44771 7.73618C1.28447 7.11423 1.41171 5.11686 1.65158 4.42897C2.37047 4.36197 3.09008 4.30316 3.8186 4.24399C3.96402 4.23223 4.10195 4.17449 4.21173 4.07826C4.99977 3.39144 5.8958 2.74918 6.95401 2.11475C8.6363 1.09754 16.3766 1.15884 18.8177 1.98751C19.9134 2.35569 21.1102 3.05677 22.5844 4.19374C22.656 4.24898 22.7383 4.28962 22.826 4.31314C23.0545 4.37373 23.4847 4.46711 24.0799 4.59613C25.5319 4.91085 29.8638 5.85037 30.6383 6.43703C30.7335 7.14773 30.7527 8.6707 30.5895 9.20961Z" fill="#043598"/>
</svg>
