<svg width="16" height="17" viewBox="0 0 16 17" fill="none" xmlns="http://www.w3.org/2000/svg">
<path d="M8 7.60479C9.06087 7.60479 10.0783 8.02621 10.8284 8.77636C11.5786 9.5265 12 10.5439 12 11.6048V16.4048H10.4V11.6048C10.4 10.9926 10.1661 10.4036 9.74617 9.95818C9.32621 9.51278 8.75191 9.2447 8.1408 9.20879L8 9.20479C7.38783 9.20475 6.79879 9.43865 6.35339 9.85861C5.90799 10.2786 5.63991 10.8529 5.604 11.464L5.6 11.6048V16.4048H4V11.6048C4 10.5439 4.42143 9.5265 5.17157 8.77636C5.92172 8.02621 6.93913 7.60479 8 7.60479ZM2.8 10.0048C3.0232 10.0048 3.24 10.0312 3.448 10.08C3.31122 10.4872 3.23022 10.911 3.2072 11.34L3.2 11.6048V11.6736C3.10804 11.6407 3.01239 11.6192 2.9152 11.6096L2.8 11.6048C2.50169 11.6048 2.21409 11.7159 1.99326 11.9165C1.77244 12.117 1.63424 12.3927 1.6056 12.6896L1.6 12.8048V16.4048H0V12.8048C0 12.0622 0.294999 11.35 0.820101 10.8249C1.3452 10.2998 2.05739 10.0048 2.8 10.0048ZM13.2 10.0048C13.9426 10.0048 14.6548 10.2998 15.1799 10.8249C15.705 11.35 16 12.0622 16 12.8048V16.4048H14.4V12.8048C14.4 12.5065 14.2889 12.2189 14.0883 11.998C13.8877 11.7772 13.6121 11.639 13.3152 11.6104L13.2 11.6048C13.06 11.6048 12.9256 11.6288 12.8 11.6728V11.6048C12.8 11.072 12.7136 10.56 12.5528 10.0816C12.76 10.0312 12.9768 10.0048 13.2 10.0048ZM2.8 5.20479C3.33043 5.20479 3.83914 5.4155 4.21421 5.79057C4.58929 6.16564 4.8 6.67435 4.8 7.20479C4.8 7.73522 4.58929 8.24393 4.21421 8.619C3.83914 8.99407 3.33043 9.20479 2.8 9.20479C2.26957 9.20479 1.76086 8.99407 1.38579 8.619C1.01071 8.24393 0.8 7.73522 0.8 7.20479C0.8 6.67435 1.01071 6.16564 1.38579 5.79057C1.76086 5.4155 2.26957 5.20479 2.8 5.20479ZM13.2 5.20479C13.7304 5.20479 14.2391 5.4155 14.6142 5.79057C14.9893 6.16564 15.2 6.67435 15.2 7.20479C15.2 7.73522 14.9893 8.24393 14.6142 8.619C14.2391 8.99407 13.7304 9.20479 13.2 9.20479C12.6696 9.20479 12.1609 8.99407 11.7858 8.619C11.4107 8.24393 11.2 7.73522 11.2 7.20479C11.2 6.67435 11.4107 6.16564 11.7858 5.79057C12.1609 5.4155 12.6696 5.20479 13.2 5.20479ZM2.8 6.80479C2.69391 6.80479 2.59217 6.84693 2.51716 6.92194C2.44214 6.99696 2.4 7.0987 2.4 7.20479C2.4 7.31087 2.44214 7.41261 2.51716 7.48763C2.59217 7.56264 2.69391 7.60479 2.8 7.60479C2.90609 7.60479 3.00783 7.56264 3.08284 7.48763C3.15786 7.41261 3.2 7.31087 3.2 7.20479C3.2 7.0987 3.15786 6.99696 3.08284 6.92194C3.00783 6.84693 2.90609 6.80479 2.8 6.80479ZM13.2 6.80479C13.0939 6.80479 12.9922 6.84693 12.9172 6.92194C12.8421 6.99696 12.8 7.0987 12.8 7.20479C12.8 7.31087 12.8421 7.41261 12.9172 7.48763C12.9922 7.56264 13.0939 7.60479 13.2 7.60479C13.3061 7.60479 13.4078 7.56264 13.4828 7.48763C13.5579 7.41261 13.6 7.31087 13.6 7.20479C13.6 7.0987 13.5579 6.99696 13.4828 6.92194C13.4078 6.84693 13.3061 6.80479 13.2 6.80479ZM8 0.404785C8.84869 0.404785 9.66263 0.741927 10.2627 1.34204C10.8629 1.94216 11.2 2.75609 11.2 3.60479C11.2 4.45348 10.8629 5.26741 10.2627 5.86753C9.66263 6.46764 8.84869 6.80479 8 6.80479C7.15131 6.80479 6.33737 6.46764 5.73726 5.86753C5.13714 5.26741 4.8 4.45348 4.8 3.60479C4.8 2.75609 5.13714 1.94216 5.73726 1.34204C6.33737 0.741927 7.15131 0.404785 8 0.404785ZM8 2.00479C7.57565 2.00479 7.16869 2.17336 6.86863 2.47341C6.56857 2.77347 6.4 3.18044 6.4 3.60479C6.4 4.02913 6.56857 4.4361 6.86863 4.73616C7.16869 5.03621 7.57565 5.20479 8 5.20479C8.42435 5.20479 8.83131 5.03621 9.13137 4.73616C9.43143 4.4361 9.6 4.02913 9.6 3.60479C9.6 3.18044 9.43143 2.77347 9.13137 2.47341C8.83131 2.17336 8.42435 2.00479 8 2.00479Z" fill="#043598"/>
</svg>
