<svg width="17" height="16" viewBox="0 0 17 16" fill="none" xmlns="http://www.w3.org/2000/svg">
<path d="M8.56508 0.000582518C12.894 -0.0521851 16.4331 3.48691 16.3803 7.81578C16.3759 8.11519 16.0993 8.38358 15.7999 8.3789C15.5005 8.37413 15.2324 8.09732 15.2375 7.79791C15.2826 4.09737 12.2776 1.09829 8.57698 1.14339C8.276 1.14941 7.99727 0.879021 7.99413 0.577998C7.991 0.276974 8.26404 0.000837756 8.56508 0.000582518ZM8.56508 2.47668C11.525 2.44058 13.9403 4.85587 13.9042 7.81578C13.8998 8.11519 13.6232 8.38358 13.3238 8.3789C13.0244 8.37413 12.7563 8.09732 12.7614 7.79791C12.7898 5.46318 10.9117 3.59103 8.57698 3.6195C8.276 3.62552 7.99727 3.35512 7.99413 3.0541C7.991 2.75307 8.26404 2.47694 8.56508 2.47668ZM4.6307 3.42903C4.85002 3.45364 5.04751 3.61701 5.11282 3.82782C5.43857 4.83172 5.7541 5.86088 6.07112 6.87533C6.1599 7.159 5.98482 7.49787 5.70209 7.58959L4.6545 7.94077C5.03689 8.62281 5.5102 9.27278 6.11874 9.88116C6.72816 10.4905 7.37629 10.9629 8.05914 11.3454L8.41032 10.2919C8.50445 10.0113 8.84242 9.83947 9.12458 9.92878L12.1721 10.8812C12.4025 10.9542 12.5721 11.1871 12.5709 11.4287V15.4286C12.5709 15.7278 12.2987 16 11.9995 16C8.92036 15.9981 5.92505 14.7284 3.59502 12.3989C1.26495 10.0694 0.00183296 7.07882 -9.15527e-05 4.00043C-6.29425e-05 3.70125 0.272137 3.42906 0.571316 3.42903C1.92233 3.42903 3.28424 3.42903 4.6307 3.42903ZM8.56508 4.57185C10.3647 4.54982 11.8309 6.01624 11.809 7.81578C11.8047 8.11519 11.5281 8.38358 11.2287 8.3789C10.9293 8.37413 10.6612 8.09732 10.6662 7.79791C10.6806 6.61573 9.75912 5.70019 8.57698 5.71466C8.276 5.72068 7.99727 5.45029 7.99413 5.14926C7.991 4.84824 8.26404 4.5721 8.56508 4.57185ZM4.14857 4.57185H1.17248C1.31823 7.13674 2.42055 9.61189 4.40451 11.5954C6.38845 13.5788 8.86249 14.6816 11.4281 14.8274V11.8454L9.31505 11.1847L8.92221 12.3692C8.8229 12.6686 8.44425 12.8388 8.15438 12.7144C7.08163 12.2468 6.15135 11.5266 5.30924 10.6847C4.46696 9.84262 3.75336 8.91801 3.2855 7.84553C3.16107 7.55566 3.33132 7.17701 3.63073 7.07771L4.80926 6.68486L4.14857 4.57185Z" fill="#043598"/>
</svg>
