<svg width="16" height="16" viewBox="0 0 16 16" fill="none" xmlns="http://www.w3.org/2000/svg">
<path d="M15.1641 1.76186C15.0816 1.74897 14.9973 1.7557 14.9179 1.7815C14.8385 1.80729 14.7663 1.85144 14.7072 1.91035L13.6621 2.95547C13.5775 3.02076 13.472 3.053 13.3653 3.04615C13.2586 3.0393 13.1581 2.99383 13.0825 2.91825C13.0069 2.84267 12.9615 2.74215 12.9546 2.63548C12.9478 2.52881 12.98 2.4233 13.0453 2.33868L14.0904 1.29356C14.1502 1.23451 14.1952 1.16211 14.2216 1.08231C14.248 1.00251 14.2551 0.91758 14.2422 0.83451C14.2294 0.75144 14.1971 0.672599 14.1478 0.60447C14.0986 0.53634 14.0339 0.480867 13.9591 0.442611C13.3033 0.0936059 12.5592 -0.0541861 11.8199 0.0177419C11.0806 0.0896699 10.3789 0.378121 9.80273 0.846973C9.22657 1.31583 8.80154 1.94424 8.58087 2.65352C8.36019 3.36281 8.35367 4.12143 8.56214 4.8344L7.07726 6.34212L5.74659 5.01144L6.07212 4.68591C6.24072 4.51812 6.34811 4.29858 6.37711 4.06249C6.4061 3.8264 6.35502 3.5874 6.23203 3.3838L5.04985 1.43633C4.92058 1.21909 4.71809 1.05507 4.47874 0.973737L2.00015 0.151348C1.81253 0.0875777 1.61075 0.0778599 1.41786 0.123304C1.22498 0.168748 1.04876 0.267522 0.909341 0.408344L0.383925 0.93376C0.243102 1.07318 0.144329 1.2494 0.0988846 1.44228C0.0534406 1.63517 0.0631584 1.83694 0.126928 2.02457L0.955029 4.49174C1.03636 4.73108 1.20038 4.93358 1.41762 5.06284L3.3708 6.23932C3.57499 6.36034 3.81353 6.4103 4.04912 6.38136C4.28471 6.35243 4.50408 6.24625 4.67292 6.07941L4.99274 5.75959L6.32341 7.09026L4.80998 8.58084C4.101 8.37872 3.34835 8.38862 2.64493 8.60931C1.9415 8.83001 1.3181 9.25184 0.851651 9.82275C0.385205 10.3937 0.0961363 11.0887 0.0201224 11.822C-0.0558916 12.5553 0.0844767 13.2948 0.423902 13.9492C0.462159 14.0241 0.517632 14.0888 0.585761 14.138C0.653891 14.1872 0.732732 14.2196 0.815802 14.2324C0.898872 14.2452 0.983799 14.2381 1.0636 14.2117C1.1434 14.1854 1.2158 14.1404 1.27485 14.0806L2.31997 13.0355C2.40222 12.9545 2.51298 12.9092 2.62836 12.9092C2.74375 12.9092 2.85451 12.9545 2.93676 13.0355C3.01804 13.1187 3.06354 13.2304 3.06354 13.3467C3.06354 13.463 3.01804 13.5747 2.93676 13.658L1.89164 14.7259C1.83904 14.7883 1.80041 14.8612 1.77835 14.9397C1.75629 15.0183 1.75132 15.1006 1.76376 15.1813C1.77621 15.2619 1.80579 15.3389 1.8505 15.4072C1.89522 15.4754 1.95404 15.5333 2.02299 15.5769C2.55214 15.8526 3.13964 15.9975 3.73631 15.9995C4.32579 16.0092 4.90934 15.8806 5.44006 15.6238C5.97079 15.3671 6.43388 14.9894 6.79214 14.5212C7.15039 14.0529 7.39382 13.5072 7.50285 12.9278C7.61188 12.3484 7.58348 11.7515 7.41993 11.1851L8.92764 9.67736L9.70434 10.4598L9.39024 10.7739C9.21442 10.9541 9.11601 11.196 9.11601 11.4478C9.11601 11.6996 9.21442 11.9414 9.39024 12.1217L12.7598 15.4912C13.0706 15.7967 13.489 15.968 13.9248 15.968C14.3606 15.968 14.779 15.7967 15.0899 15.4912L15.4953 15.0857C15.8036 14.7764 15.9767 14.3574 15.9767 13.9207C15.9767 13.4839 15.8036 13.065 15.4953 12.7556L12.1258 9.38039C11.9463 9.20321 11.7042 9.10388 11.4519 9.10388C11.1997 9.10388 10.9576 9.20321 10.778 9.38039L10.4639 9.6945L9.65866 8.92351L11.1721 7.43864C11.8818 7.6417 12.6355 7.63224 13.3398 7.41141C14.0442 7.19059 14.6684 6.76809 15.1351 6.1962C15.6019 5.62431 15.8907 4.92812 15.9659 4.19378C16.0411 3.45943 15.8993 2.71916 15.5582 2.06455C15.5221 1.98579 15.4674 1.91704 15.3987 1.86428C15.33 1.81152 15.2495 1.77636 15.1641 1.76186ZM1.96588 4.1605L1.13778 1.68191L1.6632 1.15649L4.14179 1.98459L5.31826 3.93206L3.91906 5.33126L1.96588 4.1605ZM11.4177 10.2199L14.7129 13.5152C14.7682 13.5685 14.8122 13.6323 14.8422 13.703C14.8722 13.7736 14.8877 13.8496 14.8877 13.9264C14.8877 14.0031 14.8722 14.0791 14.8422 14.1498C14.8122 14.2204 14.7682 14.2843 14.7129 14.3376L14.3074 14.7431C14.2542 14.7983 14.1903 14.8423 14.1196 14.8723C14.049 14.9024 13.973 14.9178 13.8962 14.9178C13.8195 14.9178 13.7435 14.9024 13.6729 14.8723C13.6022 14.8423 13.5383 14.7983 13.4851 14.7431L10.2012 11.4364L11.4177 10.2199ZM14.1247 5.72532C13.7473 6.09145 13.2718 6.34028 12.7559 6.44164C12.2399 6.54301 11.7056 6.49257 11.2178 6.29643C11.1213 6.25848 11.0158 6.24962 10.9143 6.27093C10.8128 6.29224 10.7198 6.3428 10.6467 6.41636L8.56214 8.54087L6.44905 10.654C6.37549 10.727 6.32494 10.8201 6.30362 10.9216C6.28231 11.023 6.29117 11.1285 6.32912 11.2251C6.48379 11.6346 6.53705 12.0755 6.48434 12.5101C6.43163 12.9447 6.27452 13.3601 6.02643 13.7208C5.72361 14.1619 5.29854 14.505 4.80344 14.7079C4.30834 14.9108 3.76475 14.9647 3.23945 14.863L3.68491 14.4175C3.96663 14.1358 4.12491 13.7537 4.12491 13.3553C4.12491 12.9569 3.96663 12.5747 3.68491 12.293C3.40318 12.0113 3.02108 11.853 2.62265 11.853C2.22423 11.853 1.84213 12.0113 1.5604 12.293L1.13778 12.7613C1.05671 12.29 1.10061 11.8057 1.26512 11.3566C1.42963 10.9075 1.709 10.5094 2.07535 10.202C2.44171 9.89459 2.88226 9.68859 3.35307 9.60456C3.82388 9.52052 4.30849 9.56137 4.75858 9.72305C4.85509 9.761 4.9606 9.76986 5.06208 9.74855C5.16357 9.72723 5.25659 9.67668 5.32969 9.60312L7.44277 7.49004L9.55586 5.37695C9.62942 5.30386 9.67997 5.21083 9.70128 5.10934C9.7226 5.00786 9.71373 4.90235 9.67579 4.80585C9.51457 4.39708 9.45528 3.95521 9.50304 3.5184C9.5508 3.08159 9.70417 2.66297 9.94992 2.2987C10.2533 1.85812 10.6784 1.51546 11.1733 1.31261C11.6683 1.10976 12.2116 1.05551 12.7369 1.15649L12.2914 1.60195C12.1519 1.74143 12.0412 1.90703 11.9657 2.0893C11.8902 2.27156 11.8513 2.46692 11.8513 2.66421C11.8513 2.86149 11.8902 3.05685 11.9657 3.23911C12.0412 3.42138 12.1519 3.58698 12.2914 3.72646C12.5774 4.00013 12.9579 4.15289 13.3537 4.15289C13.7495 4.15289 14.13 4.00013 14.416 3.72646L14.8443 3.25815C14.9387 3.6968 14.9223 4.15205 14.7967 4.58279C14.671 5.01354 14.4401 5.4062 14.1247 5.72532Z" fill="#043598"/>
</svg>
