<svg width="18" height="17" viewBox="0 0 18 17" fill="none" xmlns="http://www.w3.org/2000/svg">
<path d="M16.2 5.73812V2.18256H1.8V5.73812H16.2ZM16.2 7.5159H1.8V14.627H16.2V7.5159ZM0.9 0.404785H17.1C17.3387 0.404785 17.5676 0.498436 17.7364 0.665135C17.9052 0.831834 18 1.05793 18 1.29367V15.5159C18 15.7516 17.9052 15.9777 17.7364 16.1444C17.5676 16.3111 17.3387 16.4048 17.1 16.4048H0.9C0.661305 16.4048 0.432387 16.3111 0.263604 16.1444C0.0948211 15.9777 0 15.7516 0 15.5159V1.29367C0 1.05793 0.0948211 0.831834 0.263604 0.665135C0.432387 0.498436 0.661305 0.404785 0.9 0.404785ZM2.7 8.40479H5.4V12.8492H2.7V8.40479ZM2.7 3.07145H4.5V4.84923H2.7V3.07145ZM6.3 3.07145H8.1V4.84923H6.3V3.07145Z" fill="#043598"/>
</svg>
