<svg width="60" height="80" viewBox="0 0 60 80" fill="none" xmlns="http://www.w3.org/2000/svg">
<path opacity="0.05" d="M9.7479 80V64.7619H0V57.479H9.7479V47.507H0V38.9916H9.7479V0H30.8123C40.5976 0 47.8431 1.97946 52.549 5.93838C57.3296 9.89729 59.7199 15.6489 59.7199 23.1933C59.7199 30.8123 57.1429 36.788 51.9888 41.1204C46.8347 45.3782 39.253 47.507 29.2437 47.507H19.8319V57.479H38.3193V64.7619H19.8319V80H9.7479ZM27.7871 38.9916C34.5845 38.9916 39.8506 37.8711 43.5854 35.6302C47.395 33.3894 49.2997 29.3557 49.2997 23.5294C49.2997 18.45 47.7311 14.6779 44.5938 12.2129C41.4566 9.7479 36.564 8.51541 29.916 8.51541H19.8319V38.9916H27.7871Z" fill="white"/>
</svg>
