<svg width="23" height="27" viewBox="0 0 23 27" fill="none" xmlns="http://www.w3.org/2000/svg">
<path fill-rule="evenodd" clip-rule="evenodd" d="M20.0633 21.2502C20.1126 20.2986 20.1223 18.4837 20.1272 17.5762C20.1332 16.4361 20.3609 16.6513 19.2229 16.5574C18.3891 16.4889 16.759 16.3728 15.944 16.3149C15.1288 16.2568 15.1288 16.2568 14.6824 16.6933C14.2359 17.1299 13.3435 18.0032 12.8969 18.4395C12.4506 18.8763 12.4506 18.8763 12.1561 18.7095C9.91159 17.4371 7.13332 14.6359 5.89159 12.4448C5.72483 12.1503 5.72484 12.1503 6.16139 11.7042C6.59778 11.2577 7.471 10.365 7.90766 9.91842C8.34421 9.47227 8.34421 9.47227 8.28625 8.65718C8.22828 7.8421 8.11207 6.21208 8.04322 5.37815C7.94963 4.24021 8.16506 4.46763 7.02485 4.47404C6.11713 4.47879 4.30254 4.48851 3.35084 4.53758C2.37999 4.58752 2.18196 4.51829 2.154 5.46967C2.09769 7.37992 2.36275 9.31695 3.07119 11.096C4.71786 15.2286 9.30724 19.8571 13.5051 21.5298C15.2156 22.211 17.2851 22.5014 19.1315 22.447C20.0828 22.4189 20.0133 22.2209 20.0633 21.2502Z" fill="#043598"/>
</svg>
