<svg id="vk-icon"   xmlns="http://www.w3.org/2000/svg">
<path d="M10.4219 5.35162C10.3937 5.3043 10.2188 4.92439 9.37753 4.14354C8.49678 3.32589 8.61509 3.45866 9.67593 2.04485C10.322 1.18382 10.5803 0.657992 10.4995 0.433203C10.4226 0.21893 9.94739 0.275456 9.94739 0.275456L8.36729 0.284658C8.36729 0.284658 8.2503 0.268883 8.16288 0.320808C8.07809 0.372076 8.02354 0.490386 8.02354 0.490386C8.02354 0.490386 7.77312 1.15687 7.43922 1.72344C6.73527 2.91903 6.4533 2.98213 6.33828 2.90786C6.07077 2.73499 6.13781 2.21246 6.13781 1.84175C6.13781 0.682969 6.3133 0.199869 5.79537 0.0749855C5.62316 0.0335769 5.49696 0.00597119 5.05724 0.00137024C4.4933 -0.00454527 4.01546 0.00334207 3.74532 0.135455C3.56522 0.223531 3.42654 0.420057 3.51133 0.431231C3.61583 0.445034 3.85245 0.494987 3.97799 0.66588C4.14034 0.886068 4.13442 1.38166 4.13442 1.38166C4.13442 1.38166 4.22776 2.74551 3.91687 2.91509C3.70325 3.03143 3.41076 2.79415 2.78306 1.70898C2.46165 1.15358 2.21846 0.539025 2.21846 0.539025C2.21846 0.539025 2.17179 0.424658 2.08832 0.363531C1.9871 0.289259 1.84513 0.265597 1.84513 0.265597L0.342589 0.274798C0.342589 0.274798 0.117142 0.281371 0.0343252 0.379306C-0.0392899 0.466724 0.0284097 0.646818 0.0284097 0.646818C0.0284097 0.646818 1.20494 3.39885 2.53658 4.78636C3.75846 6.0582 5.14532 5.97472 5.14532 5.97472H5.77368C5.77368 5.97472 5.96363 5.95369 6.06025 5.84918C6.14964 5.75322 6.14635 5.57313 6.14635 5.57313C6.14635 5.57313 6.13386 4.72984 6.5256 4.60561C6.91142 4.48336 7.40701 5.42064 7.93218 5.78148C8.32917 6.05425 8.63086 5.99444 8.63086 5.99444L10.0355 5.97472C10.0355 5.97472 10.7703 5.92937 10.4219 5.35162Z" />
</svg>
