<svg width="16" height="16" viewBox="0 0 16 16" fill="none" xmlns="http://www.w3.org/2000/svg">
<path d="M11.4816 7.15084L11.9107 3.68268L10.8202 4.30838L8.51403 0.339665C8.38889 0.12514 8.15648 0 7.9062 0C7.65593 0 7.42352 0.12514 7.29838 0.339665L4.25928 5.59553L5.45704 6.29274L7.9062 2.07374L9.60453 5.00559L8.26375 5.79218L11.4816 7.15084Z" fill="#043598"/>
<path d="M12.6792 8.31274L11.4815 9.00995L13.9127 13.2111H10.4446V11.7988L7.65576 13.9083L10.4446 15.9999V14.6055H15.1105C15.3608 14.6055 15.5932 14.4803 15.7183 14.2658C15.8435 14.0513 15.8435 13.7831 15.7183 13.5686L12.6792 8.31274Z" fill="#043598"/>
<path d="M3.57989 10.2971L4.75978 10.9765L4.33073 7.5083L1.13073 8.88484L2.38212 9.59992L0.0938547 13.5686C-0.0312849 13.7832 -0.0312849 14.0513 0.0938547 14.2658C0.218994 14.4804 0.451397 14.6055 0.701676 14.6055H6.76201V13.2111H1.89944L3.57989 10.2971Z" fill="#043598"/>
</svg>
