<svg width="11" height="16" viewBox="0 0 11 16" fill="none" xmlns="http://www.w3.org/2000/svg">
<path d="M10.1333 7.46667H9.6V0.533333C9.59958 0.392014 9.54325 0.256604 9.44332 0.156676C9.3434 0.0567477 9.20799 0.000422061 9.06667 0H1.6C1.45868 0.000422061 1.32327 0.0567477 1.22334 0.156676C1.12341 0.256604 1.06709 0.392014 1.06667 0.533333V7.46667H0.533333C0.392014 7.46709 0.256604 7.52342 0.156676 7.62334C0.0567477 7.72327 0.000422061 7.85868 0 8V10.1333C0.000422061 10.2747 0.0567477 10.4101 0.156676 10.51C0.256604 10.6099 0.392014 10.6662 0.533333 10.6667H4.8V12.8H3.73333C3.02617 12.8003 2.34804 13.0813 1.848 13.5813C1.34796 14.0814 1.06692 14.7595 1.06667 15.4667C1.06667 15.6081 1.12286 15.7438 1.22288 15.8438C1.3229 15.9438 1.45855 16 1.6 16C1.74145 16 1.8771 15.9438 1.97712 15.8438C2.07714 15.7438 2.13333 15.6081 2.13333 15.4667C2.13457 15.0427 2.30354 14.6365 2.60333 14.3367C2.90312 14.0369 3.30937 13.8679 3.73333 13.8667H4.8V15.4667C4.8 15.6081 4.85619 15.7438 4.95621 15.8438C5.05623 15.9438 5.19188 16 5.33333 16C5.47478 16 5.61044 15.9438 5.71046 15.8438C5.81048 15.7438 5.86667 15.6081 5.86667 15.4667V13.8667H6.93333C7.3573 13.8679 7.76355 14.0369 8.06334 14.3367C8.36313 14.6365 8.5321 15.0427 8.53333 15.4667C8.53333 15.6081 8.58952 15.7438 8.68954 15.8438C8.78956 15.9438 8.92522 16 9.06667 16C9.20812 16 9.34377 15.9438 9.44379 15.8438C9.54381 15.7438 9.6 15.6081 9.6 15.4667C9.59974 14.7595 9.31871 14.0814 8.81867 13.5813C8.31863 13.0813 7.6405 12.8003 6.93333 12.8H5.86667V10.6667H10.1333C10.2747 10.6662 10.4101 10.6099 10.51 10.51C10.6099 10.4101 10.6662 10.2747 10.6667 10.1333V8C10.6662 7.85868 10.6099 7.72327 10.51 7.62334C10.4101 7.52342 10.2747 7.46709 10.1333 7.46667ZM2.13333 1.06667H8.53333V7.46667H2.13333V1.06667ZM9.6 9.6H1.06667V8.53333H9.6V9.6Z" fill="#043598"/>
</svg>
