<svg width="19" height="16" viewBox="0 0 19 16" fill="none" xmlns="http://www.w3.org/2000/svg">
<path d="M15.0872 4.60525C14.8154 4.33341 14.385 4.33341 14.1358 4.60525C13.8639 4.87709 13.8639 5.3075 14.1358 5.55669L16.5823 8.00326L14.1358 10.4498C13.8639 10.7217 13.8639 11.1521 14.1358 11.4013C14.2717 11.5372 14.4529 11.6052 14.6115 11.6052C14.7701 11.6052 14.9513 11.5372 15.0872 11.4013L18.0095 8.47898C18.2813 8.20714 18.2813 7.77673 18.0095 7.52754L15.0872 4.60525Z" fill="#043598"/>
<path d="M11.5985 0.0293395C11.236 -0.0839276 10.8509 0.142606 10.7603 0.505061L6.59208 15.1392C6.47882 15.5016 6.70535 15.8867 7.06781 15.9773C7.13577 16 7.18107 16 7.24903 16C7.54353 16 7.81537 15.7961 7.90598 15.5016L12.0516 0.867516C12.1648 0.505061 11.9609 0.119953 11.5985 0.0293395Z" fill="#043598"/>
<path d="M4.07762 4.60525C3.80577 4.33341 3.37536 4.33341 3.12617 4.60525L0.203881 7.52754C-0.0679603 7.79938 -0.0679603 8.22979 0.203881 8.47898L3.12617 11.4013C3.26209 11.5372 3.44332 11.6052 3.60189 11.6052C3.76047 11.6052 3.94169 11.5372 4.07762 11.4013C4.34946 11.1294 4.34946 10.699 4.07762 10.4498L1.63105 8.00326L4.07762 5.55669C4.34946 5.3075 4.34946 4.87709 4.07762 4.60525Z" fill="#043598"/>
</svg>
