<svg width="14" height="16" viewBox="0 0 14 16" fill="none" xmlns="http://www.w3.org/2000/svg">
<path d="M14 0V7.2H11.6659L11.6667 8C11.6667 9.768 10.2744 11.2 8.55556 11.2H7.483L7.00622 13.6888L7.71478 14.7456C7.959 15.1096 7.87033 15.608 7.51644 15.8584C7.38656 15.9504 7.23256 16 7.07467 16H0L1.799 7.9808L0 7.2L3.11111 0H14ZM12.4444 1.6H4.12222L2.065 6.36L3.60889 7.0296L1.95533 14.4H5.59378L5.35345 14.0416L6.96889 5.6H12.4444V1.6ZM10.1103 7.2H8.24833L7.78867 9.6H8.55556C9.415 9.6 10.1111 8.884 10.1111 8L10.1103 7.2Z" fill="#043598"/>
</svg>
