<svg width="24" height="16" viewBox="0 0 24 16" fill="none" xmlns="http://www.w3.org/2000/svg">
<path d="M14.1985 0H14.0099L8.26708 3.15281H4.11627C1.84655 3.15281 0 4.99936 0 7.26907C0 9.29915 1.47827 10.9862 3.41376 11.3214L2.083 16H6.67438L7.98677 11.3861H8.26708L14.0101 14.5384H14.1988C15.4146 14.5384 16.4041 13.5492 16.4041 12.3331V2.20527C16.4038 0.989433 15.4144 0 14.1985 0ZM5.56415 14.5296H4.02977L4.83666 11.6926H6.37104L5.56415 14.5296ZM4.11627 9.91565C2.65711 9.91565 1.47018 8.72823 1.47018 7.26907C1.47018 5.80992 2.65711 4.62299 4.11627 4.62299H8.64419L10.5753 3.56274V10.9756L8.64419 9.91565H4.11627ZM14.9336 12.3331C14.9336 12.6845 14.6857 12.9788 14.3561 13.0511L12.0455 11.7828V2.75586L14.3561 1.48733C14.6859 1.55962 14.9336 1.85415 14.9336 2.20552V12.3331Z" fill="#043598"/>
<path d="M19.225 4.09644L18.1736 5.14786C18.7168 5.90035 19.0407 6.82118 19.0407 7.81796C19.0407 8.81499 18.7168 9.73581 18.1736 10.4881L19.225 11.5395C20.0294 10.5126 20.5109 9.22076 20.5109 7.81796C20.5109 6.41516 20.0294 5.12336 19.225 4.09644Z" fill="#043598"/>
<path d="M21.0963 2.2251L20.0535 3.26795C21.0662 4.51001 21.6748 6.09413 21.6748 7.81792C21.6748 9.54195 21.0662 11.1258 20.0535 12.3679L21.0963 13.4107C22.3732 11.8989 23.145 9.94723 23.145 7.81792C23.145 5.6886 22.3732 3.73694 21.0963 2.2251Z" fill="#043598"/>
</svg>
