<svg width="17" height="16" viewBox="0 0 17 16" fill="none" xmlns="http://www.w3.org/2000/svg">
<path d="M1.01653 5.78992C0.984628 5.7626 0.953396 5.73506 0.922851 5.7073C0.916105 5.70136 0.909352 5.69543 0.902591 5.68948L0.902939 5.6891C0.326217 5.15782 0 4.5457 0 3.87879C0 1.62702 3.71891 0 8.24242 0C12.7659 0 16.4848 1.62702 16.4848 3.87879C16.4848 4.5457 16.1586 5.15782 15.5819 5.6891L15.5823 5.68948C15.5755 5.69543 15.5687 5.70136 15.562 5.7073C15.5314 5.73506 15.5002 5.7626 15.4683 5.78992C13.3521 7.6593 11.9207 9.13787 11.1818 10.2105C10.4312 11.3001 9.60004 13.1258 8.69962 15.6765C8.54738 16.1078 7.93747 16.1078 7.78522 15.6765C6.8848 13.1258 6.05368 11.3001 5.30306 10.2105C4.56412 9.13787 3.13274 7.6593 1.01653 5.78992ZM1.13484 4.46765C2.34578 3.07682 5.11233 2.18182 8.24242 2.18182C11.3725 2.18182 14.1391 3.07682 15.35 4.46765C15.4582 4.27493 15.5151 4.07762 15.5151 3.87879C15.5151 2.38171 12.2877 0.969697 8.24242 0.969697C4.19715 0.969697 0.969697 2.38171 0.969697 3.87879C0.969697 4.07762 1.02663 4.27493 1.13484 4.46765ZM8.24242 6.78788C9.75808 6.78788 11.2001 6.5916 12.4107 6.23757C11.3305 5.67173 9.84414 5.33333 8.24242 5.33333C6.6407 5.33333 5.1543 5.67173 4.07416 6.23757C5.28478 6.5916 6.72676 6.78788 8.24242 6.78788ZM2.90927 5.81756C4.17791 4.90424 6.13086 4.36364 8.24242 4.36364C10.354 4.36364 12.3069 4.90424 13.5756 5.81756C14.0057 5.62657 14.3792 5.41233 14.6833 5.17939C13.7678 4.01898 11.2049 3.15151 8.24242 3.15151C5.27994 3.15151 2.71699 4.01898 1.80157 5.17939C2.10564 5.41233 2.47914 5.62657 2.90927 5.81756ZM8.29217 7.75748C8.26731 7.75756 8.26731 7.75756 8.24242 7.75757C8.21764 7.75756 8.21764 7.75757 8.19307 7.75751C6.66577 7.75346 5.21442 7.56042 3.96983 7.21591C4.92153 8.16433 5.63159 8.97811 6.10161 9.66039C6.77623 10.6397 7.48767 12.1188 8.24242 14.1043C8.99717 12.1188 9.70862 10.6397 10.3832 9.66039C10.8532 8.97812 11.5633 8.16434 12.515 7.21591C11.2705 7.56042 9.81925 7.75344 8.29217 7.75748Z" fill="#043598"/>
</svg>
