<svg width="770" height="273" viewBox="0 0 770 273" fill="none" xmlns="http://www.w3.org/2000/svg">
<path d="M176.432 227.5V267.312H211.339V227.5H238.658V193.375H211.339V5.68749H178.329L0 197.546V227.5H176.432ZM176.432 193.375H48.9457L176.432 55.7375V193.375Z" fill="#F4F7FA"/>
<path d="M383.672 33.3667C396.572 33.3667 408.335 34.5042 418.2 36.7792C428.065 39.0542 436.033 43.6042 442.862 50.8083C449.692 58.0125 454.624 68.25 458.039 81.9C461.075 95.55 462.972 114.129 462.972 136.879C462.972 158.871 461.075 176.692 458.039 190.342C454.624 203.992 449.692 214.229 442.862 221.433C436.033 229.017 428.065 233.946 418.2 236.221C408.335 238.496 396.572 239.633 383.672 239.633C370.392 239.633 359.009 238.496 349.144 236.221C339.279 233.946 330.932 229.017 324.482 221.433C317.652 214.229 312.72 203.992 309.305 190.342C305.89 176.692 304.372 158.871 304.372 136.879C304.372 114.129 305.89 95.55 309.305 81.9C312.72 68.25 317.652 58.0125 324.482 50.8083C330.932 43.6042 339.279 39.0542 349.144 36.7792C359.009 34.5042 370.392 33.3667 383.672 33.3667ZM383.672 273C403.023 273 419.717 271.104 434.135 266.554C448.554 262.383 460.316 255.179 470.181 244.562C479.666 234.325 486.875 220.296 491.428 202.854C495.982 185.412 498.638 163.421 498.638 136.879C498.638 109.579 495.982 86.8292 491.049 69.0083C485.737 51.5667 478.528 37.5375 468.663 27.3C458.798 17.0625 447.036 9.85834 432.618 6.06668C418.2 2.27499 401.884 0 383.672 0C365.08 0 348.765 2.27499 334.347 6.06668C319.929 9.85834 308.167 17.0625 298.302 27.3C288.436 37.5375 281.227 51.5667 276.295 69.0083C270.983 86.8292 268.706 109.579 268.706 136.879C268.706 163.421 270.983 185.412 275.536 202.854C280.089 220.296 287.298 234.325 297.163 244.562C306.649 255.179 318.79 262.383 333.209 266.554C347.627 271.104 364.321 273 383.672 273Z" fill="#F4F7FA"/>
<path d="M707.774 227.5V267.312H742.681V227.5H770V193.375H742.681V5.68749H709.672L531.342 197.546V227.5H707.774ZM707.774 193.375H580.288L707.774 55.7375V193.375Z" fill="#F4F7FA"/>
</svg>
