<svg width="123" height="24" viewBox="0 0 123 24" fill="none" xmlns="http://www.w3.org/2000/svg">
<path d="M9.76739 0L5.58136 7.25577L9.20925 8.65111L11.9999 3.62789L14.7208 8.01449L13.1162 9.48832H18.1394L19.5348 5.02323L17.8604 6.1395L14.2325 0H9.76739ZM6.1395 11.4418L1.39534 11.9999L3.06975 13.1162L0 18.6976L1.66569 22.0464H9.20925V18.6976H4.18602L6.1395 14.7906L8.09298 15.9069L6.1395 11.4418ZM20.4941 12.0348L17.2848 13.8487L19.9534 18.715L15.3488 18.6977V16.7442L12.5581 20.093L15.3488 24V22.0465H21.7673L23.9999 18.9768L20.4941 12.0348Z" fill="#043598"/>
<path d="M42.462 18.27C43.56 18.27 44.478 18.198 45.216 18.018C45.954 17.838 46.548 17.586 46.998 17.244C47.43 16.92 47.754 16.506 47.934 16.038C48.114 15.57 48.222 15.012 48.222 14.4C48.222 13.86 48.132 13.392 47.988 12.996C47.826 12.618 47.592 12.294 47.286 12.024C46.98 11.772 46.602 11.556 46.152 11.376C45.684 11.214 45.162 11.07 44.55 10.962L40.986 10.296C40.374 10.188 39.96 10.026 39.708 9.81C39.456 9.594 39.33 9.288 39.33 8.892C39.33 8.694 39.366 8.496 39.456 8.316C39.528 8.136 39.69 7.974 39.924 7.83C40.14 7.686 40.464 7.578 40.878 7.488C41.274 7.416 41.814 7.362 42.48 7.362C42.966 7.362 43.398 7.398 43.776 7.452C44.154 7.524 44.478 7.632 44.748 7.794C45.018 7.956 45.234 8.172 45.396 8.46C45.54 8.748 45.648 9.126 45.684 9.594H48.15C48.114 8.784 47.952 8.1 47.7 7.56C47.448 7.02 47.07 6.57 46.602 6.246C46.134 5.922 45.54 5.67 44.856 5.526C44.172 5.382 43.362 5.31 42.462 5.31C41.418 5.31 40.536 5.418 39.816 5.598C39.096 5.796 38.52 6.048 38.088 6.372C37.656 6.696 37.332 7.092 37.152 7.524C36.954 7.956 36.864 8.424 36.864 8.928C36.864 9.882 37.116 10.638 37.638 11.178C38.16 11.736 38.97 12.114 40.086 12.33L43.776 13.05C44.046 13.104 44.298 13.158 44.532 13.212C44.766 13.284 44.964 13.356 45.144 13.464C45.324 13.572 45.45 13.698 45.558 13.86C45.666 14.022 45.72 14.238 45.72 14.508C45.72 14.796 45.666 15.03 45.576 15.246C45.468 15.462 45.306 15.624 45.072 15.768C44.82 15.912 44.496 16.038 44.064 16.11C43.632 16.182 43.092 16.218 42.444 16.218C41.922 16.218 41.454 16.2 41.058 16.128C40.662 16.056 40.32 15.948 40.032 15.768C39.744 15.588 39.51 15.354 39.366 15.048C39.204 14.742 39.114 14.346 39.096 13.878H36.504C36.522 14.706 36.666 15.39 36.918 15.948C37.17 16.506 37.53 16.956 38.034 17.298C38.538 17.658 39.15 17.91 39.888 18.054C40.626 18.198 41.49 18.27 42.462 18.27ZM49.9095 5.58V18H55.2015C56.2635 18 57.1995 17.91 57.9915 17.712C58.7835 17.532 59.4315 17.19 59.9535 16.722C60.4755 16.254 60.8715 15.624 61.1235 14.832C61.3755 14.04 61.5195 13.032 61.5195 11.808C61.5195 10.512 61.3755 9.45 61.1055 8.64C60.8175 7.83 60.4215 7.2 59.8815 6.75C59.3415 6.3 58.6935 5.994 57.9015 5.832C57.1095 5.67 56.2095 5.58 55.2015 5.58H49.9095ZM54.9855 15.894H52.3575V7.686H54.9855C55.6515 7.686 56.2455 7.722 56.7495 7.794C57.2535 7.866 57.6675 8.028 58.0095 8.298C58.3515 8.586 58.6035 9 58.7835 9.54C58.9455 10.098 59.0355 10.854 59.0355 11.808C59.0355 12.708 58.9455 13.41 58.7835 13.95C58.6035 14.49 58.3515 14.904 58.0275 15.192C57.6855 15.48 57.2715 15.678 56.7675 15.768C56.2635 15.858 55.6695 15.894 54.9855 15.894ZM67.5086 5.58L61.8926 18H64.5746L65.4566 15.894H71.4866L72.3506 18H75.0866L69.5246 5.58H67.5086ZM66.2486 14.04L68.4986 8.676L70.7126 14.04H66.2486ZM75.846 5.58H73.002L78.492 14.022V18H80.958V13.95L86.358 5.58H83.568L79.752 11.718L75.846 5.58ZM95.4873 18H98.6193L93.0393 11.304L98.2413 5.58H95.3253L89.7813 11.916V5.58H87.3333V18H89.7813V12.528H91.1853L95.4873 18ZM104.581 5.58L98.9648 18H101.647L102.529 15.894H108.559L109.423 18H112.159L106.597 5.58H104.581ZM103.321 14.04L105.571 8.676L107.785 14.04H103.321ZM122.415 7.776V5.58H110.535V7.776H115.251V18H117.699V7.776H122.415Z" fill="#1E1E1E"/>
</svg>
