<svg width="124" height="27" viewBox="0 0 124 27" fill="none" xmlns="http://www.w3.org/2000/svg">
<path d="M10.7674 1L6.58136 8.25577L10.2093 9.65111L12.9999 4.62789L15.7208 9.01449L14.1162 10.4883H19.1394L20.5348 6.02323L18.8604 7.1395L15.2325 1H10.7674ZM7.1395 12.4418L2.39534 12.9999L4.06975 14.1162L1 19.6976L2.66569 23.0464H10.2093V19.6976H5.18602L7.1395 15.7906L9.09298 16.9069L7.1395 12.4418ZM21.4941 13.0348L18.2848 14.8487L20.9534 19.715L16.3488 19.6977V17.7442L13.5581 21.093L16.3488 25V23.0465H22.7673L24.9999 19.9768L21.4941 13.0348Z" stroke="white" stroke-opacity="0.5"/>
<path d="M43.462 19.27C44.56 19.27 45.478 19.198 46.216 19.018C46.954 18.838 47.548 18.586 47.998 18.244C48.43 17.92 48.754 17.506 48.934 17.038C49.114 16.57 49.222 16.012 49.222 15.4C49.222 14.86 49.132 14.392 48.988 13.996C48.826 13.618 48.592 13.294 48.286 13.024C47.98 12.772 47.602 12.556 47.152 12.376C46.684 12.214 46.162 12.07 45.55 11.962L41.986 11.296C41.374 11.188 40.96 11.026 40.708 10.81C40.456 10.594 40.33 10.288 40.33 9.892C40.33 9.694 40.366 9.496 40.456 9.316C40.528 9.136 40.69 8.974 40.924 8.83C41.14 8.686 41.464 8.578 41.878 8.488C42.274 8.416 42.814 8.362 43.48 8.362C43.966 8.362 44.398 8.398 44.776 8.452C45.154 8.524 45.478 8.632 45.748 8.794C46.018 8.956 46.234 9.172 46.396 9.46C46.54 9.748 46.648 10.126 46.684 10.594H49.15C49.114 9.784 48.952 9.1 48.7 8.56C48.448 8.02 48.07 7.57 47.602 7.246C47.134 6.922 46.54 6.67 45.856 6.526C45.172 6.382 44.362 6.31 43.462 6.31C42.418 6.31 41.536 6.418 40.816 6.598C40.096 6.796 39.52 7.048 39.088 7.372C38.656 7.696 38.332 8.092 38.152 8.524C37.954 8.956 37.864 9.424 37.864 9.928C37.864 10.882 38.116 11.638 38.638 12.178C39.16 12.736 39.97 13.114 41.086 13.33L44.776 14.05C45.046 14.104 45.298 14.158 45.532 14.212C45.766 14.284 45.964 14.356 46.144 14.464C46.324 14.572 46.45 14.698 46.558 14.86C46.666 15.022 46.72 15.238 46.72 15.508C46.72 15.796 46.666 16.03 46.576 16.246C46.468 16.462 46.306 16.624 46.072 16.768C45.82 16.912 45.496 17.038 45.064 17.11C44.632 17.182 44.092 17.218 43.444 17.218C42.922 17.218 42.454 17.2 42.058 17.128C41.662 17.056 41.32 16.948 41.032 16.768C40.744 16.588 40.51 16.354 40.366 16.048C40.204 15.742 40.114 15.346 40.096 14.878H37.504C37.522 15.706 37.666 16.39 37.918 16.948C38.17 17.506 38.53 17.956 39.034 18.298C39.538 18.658 40.15 18.91 40.888 19.054C41.626 19.198 42.49 19.27 43.462 19.27ZM50.9095 6.58V19H56.2015C57.2635 19 58.1995 18.91 58.9915 18.712C59.7835 18.532 60.4315 18.19 60.9535 17.722C61.4755 17.254 61.8715 16.624 62.1235 15.832C62.3755 15.04 62.5195 14.032 62.5195 12.808C62.5195 11.512 62.3755 10.45 62.1055 9.64C61.8175 8.83 61.4215 8.2 60.8815 7.75C60.3415 7.3 59.6935 6.994 58.9015 6.832C58.1095 6.67 57.2095 6.58 56.2015 6.58H50.9095ZM55.9855 16.894H53.3575V8.686H55.9855C56.6515 8.686 57.2455 8.722 57.7495 8.794C58.2535 8.866 58.6675 9.028 59.0095 9.298C59.3515 9.586 59.6035 10 59.7835 10.54C59.9455 11.098 60.0355 11.854 60.0355 12.808C60.0355 13.708 59.9455 14.41 59.7835 14.95C59.6035 15.49 59.3515 15.904 59.0275 16.192C58.6855 16.48 58.2715 16.678 57.7675 16.768C57.2635 16.858 56.6695 16.894 55.9855 16.894ZM68.5086 6.58L62.8926 19H65.5746L66.4566 16.894H72.4866L73.3506 19H76.0866L70.5246 6.58H68.5086ZM67.2486 15.04L69.4986 9.676L71.7126 15.04H67.2486ZM76.846 6.58H74.002L79.492 15.022V19H81.958V14.95L87.358 6.58H84.568L80.752 12.718L76.846 6.58ZM96.4873 19H99.6193L94.0393 12.304L99.2413 6.58H96.3253L90.7813 12.916V6.58H88.3333V19H90.7813V13.528H92.1853L96.4873 19ZM105.581 6.58L99.9648 19H102.647L103.529 16.894H109.559L110.423 19H113.159L107.597 6.58H105.581ZM104.321 15.04L106.571 9.676L108.785 15.04H104.321ZM123.415 8.776V6.58H111.535V8.776H116.251V19H118.699V8.776H123.415Z" fill="white"/>
</svg>
